<svg title="Outline of Liverpool's famous Superlambanana" role="img" aria-hidden="false" focussable="false" xmlns="http://www.w3.org/2000/svg" width="100" height="90.8" viewBox="0 0 100 90.8"><path fill="currentColor" d="M94.8.8a111.6 111.6 0 01-15 21.4 52.7 52.7 0 01-7.5 7 53 53 0 01-4.3 2.9 73.9 73.9 0 01-6.4 3 71.3 71.3 0 01-7.3 2.6 44 44 0 01-6.8 1.2 44 44 0 01-6.4.2 23 23 0 01-9.7-2.1 28 28 0 01-7-3.4l-3-2a12.7 12.7 0 00-4-2 9.9 9.9 0 00-6.7 1.1 9.3 9.3 0 00-1.4 1A6.9 6.9 0 007 34a5.2 5.2 0 01-1.6 1.8 5 5 0 01-1 .6 10.4 10.4 0 00-2.8 2A4.3 4.3 0 000 40.9a4 4 0 00.2 1.5A3.5 3.5 0 002.6 45a8.3 8.3 0 001.5.5 9.8 9.8 0 002.3.1 11.1 11.1 0 013.7.6l4.2 2c4.3 2 5.1 2.4 6.1 3.4a20.1 20.1 0 012.7 3.6 34.6 34.6 0 012 3.4 31.3 31.3 0 013 8.2 30.6 30.6 0 01.4 3.5 32.4 32.4 0 010 4.5c-.4 5-2 6.4-2.5 11.3a27.5 27.5 0 00-.1 4l7.7-.2 1.1-6.6 1.4-6.2.7-4.6.6 2.8a31.7 31.7 0 01-.1 3.5 44.6 44.6 0 01-1 5.8c-.4 1.4-.8 3.5-1.3 6.2l8.4-.2A42.8 42.8 0 0144 85l.6-3 .7-3.7a27.9 27.9 0 011-4.6 13 13 0 011.5-3 13.6 13.6 0 012.4-1.9 12.7 12.7 0 013.8-1.5 12 12 0 016.4.5 5 5 0 014 3.8 27.9 27.9 0 01.1 7.4 104.4 104.4 0 01-2.7 11.4l10.5-.1.3-1.5a18.7 18.7 0 015.7.1l2.8-.1a31 31 0 00-1.2-9 12.7 12.7 0 01-.3-5.8l.3-4.2a26.4 26.4 0 006.6-10.5l4.8-11.9q1.3-3.4 2.9-7l2.4-5.3a34.7 34.7 0 003.3-11.3 43.8 43.8 0 00-1.6-14.4l-1.7-5L95.1 0z"/></svg>