<svg aria-hidden="true" xmlns="http://www.w3.org/2000/svg" viewBox="0 0 350 200"><defs><style>.cls-1{fill:#4d4d4d}</style></defs><g id="Minute_Lesson_Plan" data-name="Minute Lesson Plan"><path id="M" class="cls-1" d="M167.8 38l-.2 25.5a21 21 0 00-2.7-.2H157a256.4 256.4 0 01-.3-15.6c0-2.8 0-5.5-.2-8.2l-.6-7.3a17.4 17.4 0 00-1.3 2.8l-1.4 3.9c-.4 1.4-1 2.5-1.4 3.5s-.8 1.5-1 1.5-.6-.3-1-.8a13.8 13.8 0 01-1-2.1l-1-2.8c-.5-1-.8-1.8-1-2.6l-1-2.8a136.1 136.1 0 00-.4 15.2q.2 7.7.7 15.1a31.5 31.5 0 01-5.6.4l-5.7-.1-.2-.3a9.7 9.7 0 01-.2-1.5l-.1-3.6V41.6v-14l.2-19.1a11.4 11.4 0 012.4-.4 24 24 0 012.8 0h5.8a9.4 9.4 0 011.4 2.5 56.4 56.4 0 012.6 7 12.5 12.5 0 001.2 2.6.7.7 0 00.5.3c.2 0 .4-.5.8-1.5l1.1-3.8 1.4-4.2a12.2 12.2 0 011.5-3 11.6 11.6 0 002 0l3.2-.2h6.6q-.3 7.6 0 15t.3 7.6l-.3 7.5z"/><path id="i" class="cls-1" d="M183.8 23.2h1.4v.2l-.4 19.8q-.3 10 .3 19.8c-.3.3-1 .5-2 .5h-7a7.8 7.8 0 00-2.3 0c.3-3.4.4-6.8.4-10.3L174 43l-.2-10.2a93 93 0 01.5-9.7 3 3 0 011.1 0 10.5 10.5 0 001.1 0l3 .2h4.3zM174 5.7l10.9.2v4.4l.1 3c.2 1 0 2 0 2.8a2 2 0 01-1.4.6 15.4 15.4 0 01-2.7.2l-3.4-.2a30 30 0 00-3.2 0l-.2-4.8c-.1-1.6-.2-3.8-.1-6.3z"/><path id="n" class="cls-1" d="M201.3 27.7l1-.6a6.6 6.6 0 001-.6 15 15 0 018-2.7 14 14 0 014.3.5 9.4 9.4 0 013.8 2 5.5 5.5 0 011.2 3 37.4 37.4 0 01.6 5.4v14.7L221 57v6.3a32.3 32.3 0 01-5 .4h-5l-.1-4.2v-9.7a66 66 0 00-.6-9 10.1 10.1 0 00-.6-2 3 3 0 00-1-1.4.3.3 0 00-.2-.1.2.2 0 01-.1 0 7.3 7.3 0 00-2-.6 5.6 5.6 0 00-2.4.1 4.8 4.8 0 00-2.1 1.5 5.4 5.4 0 00-1.1 3.2 67.4 67.4 0 000 10.9c.2 1.8.2 3.6.2 5.3a42.3 42.3 0 01-.3 5.3v.3a13.5 13.5 0 01-2.4.5 17.4 17.4 0 01-2 0l-2.3-.1a23 23 0 00-3.2 0l-.2-19.6q-.2-9.8.1-20.5l1.6.2h2.4l1.6-.2a8.7 8.7 0 001.2 0l1.5-.3a8.8 8.8 0 011.5 0c.4 0 .6.1.6.3a13.1 13.1 0 01.1 2.3v1.9z"/><path id="u" class="cls-1" d="M246.3 59l-1 .6a7 7 0 00-1 .7 14.8 14.8 0 01-3.8 1.9 14.5 14.5 0 01-4.2.8 14.3 14.3 0 01-4.3-.5 9.7 9.7 0 01-3.8-2 5.7 5.7 0 01-1.2-3 38.7 38.7 0 01-.6-5.5v-7-7.7l.2-7.5v-6.3a31.8 31.8 0 015-.3h5V37c0 1.6.2 3.2.3 4.6l.1 2.2a19.1 19.1 0 00.3 2.2 10.4 10.4 0 00.6 2 3.2 3.2 0 001 1.4.2.2 0 00.1 0 .2.2 0 01.2.1 6.8 6.8 0 001.9.6 5.4 5.4 0 002.4-.2 4.7 4.7 0 002.2-1.4 5.4 5.4 0 001.1-3.3 61.9 61.9 0 00-.1-10.8l-.2-5.4a31.2 31.2 0 01.4-5.3v-.3a12 12 0 012.3-.5 17.5 17.5 0 012 0l2.4.2a20.2 20.2 0 003.2-.1l.2 19.7q.2 9.9-.2 20.4l-1.6-.1h-2.4l-1.6.1a8.5 8.5 0 00-1.1.1l-1.6.2a8.8 8.8 0 01-1.5 0c-.4 0-.6 0-.6-.3a14.2 14.2 0 01-.2-2.2 18 18 0 000-2z"/><path id="t" class="cls-1" d="M277 8.6v15.2l5.2-.2 6.9-.4a3.3 3.3 0 01.6 1.9v2.6c0 .9 0 2-.2 3a11.8 11.8 0 000 2.5h-12.4v8.4l.1 7.8a5.3 5.3 0 002.3 1.7 17 17 0 003.3 1 21.3 21.3 0 003.6.5 27.8 27.8 0 003.1 0l.4 2.5.2 2.8a17.3 17.3 0 010 2.9 10.5 10.5 0 01-.5 2.6 61.3 61.3 0 01-6.7 0 37.6 37.6 0 01-6.4-1 18.3 18.3 0 01-5.4-2 8.2 8.2 0 01-3.4-4 84.8 84.8 0 01-1.2-11.7V33.4H260.7l.2-9.7h5.7V20l-.1-4.1v-4a29.3 29.3 0 01.2-3.5 12.2 12.2 0 012.2 0l2.6.1 2.7.2a17.5 17.5 0 002.8 0z"/><path id="e" class="cls-1" d="M303.3 43.3v1.4l.2 4a6.5 6.5 0 001 3 6.1 6.1 0 002.7 2.7 5.3 5.3 0 003.5.5 4.5 4.5 0 002.8-2 8 8 0 001-4.9 19.6 19.6 0 002.2 0l2.8-.1a20.7 20.7 0 012.9 0 9.5 9.5 0 012.2.3c0 1.4-.2 2.7-.3 4L324 56a21.1 21.1 0 01-.6 3 3.5 3.5 0 01-1 1.8 7.4 7.4 0 01-3.4 2.7 16.6 16.6 0 01-4.8 1 41.8 41.8 0 01-5.2 0 79 79 0 00-5-.2 11.6 11.6 0 01-4.1-1.4 12.5 12.5 0 01-3.6-4 24.2 24.2 0 01-2.3-5.4 31.4 31.4 0 01-1.2-6.2 44.9 44.9 0 01-.2-6.6l.5-5.7a22.2 22.2 0 011.3-5.4 10.2 10.2 0 013.2-4 15.5 15.5 0 014.8-2.5 20.9 20.9 0 015.8-1 22 22 0 016 .7 12 12 0 015.9 2.6 12.4 12.4 0 013.4 4.7 18.6 18.6 0 011.4 6 43.4 43.4 0 010 6.7 15.3 15.3 0 01-2.2.3 128 128 0 01-12.8.6h-4a17 17 0 01-2.5-.3zm9.7-12.4a4.9 4.9 0 00-2.8-.8 10.4 10.4 0 00-3.1.3 4.5 4.5 0 00-3 3 10.7 10.7 0 00-.6 2 4.7 4.7 0 000 1.2c0 .2.2.4.7.5a14.2 14.2 0 002.2 0h4.6l3.1.1a12.2 12.2 0 001.5 0c.3 0 .4 0 .4-.2V36a6 6 0 00-.8-3A5.4 5.4 0 00313 31z"/><path id="L" class="cls-1" d="M167.7 120.2l.1 4.3a8.2 8.2 0 01-.2 2.2c-.1.4-.3.7-.7.7h-1.3a17 17 0 00-2.3 0l-4.7.2h-9.1l-15.5-.1V126l.4-10.9.2-9V98l-.1-8-.2-8.7c0-3 0-6.5-.2-10.2a11.1 11.1 0 012.5-.5 30.9 30.9 0 013.6-.2 29.4 29.4 0 013.8.3 10.7 10.7 0 013 .7l-.1 10.7.1 11 .1 11v10.6a9.4 9.4 0 012.2 0h3.6l4.4.3 4.6.2 3.7.1a21.3 21.3 0 002.3 0 13.3 13.3 0 010 1.8c-.2.6-.2 1.1-.2 1.6a9.6 9.6 0 000 1.5z"/><path id="e-2" class="cls-1" d="M180.5 107.3v1.5c0 1.6 0 3 .2 4a6.5 6.5 0 001 3 6 6 0 002.7 2.6 5.3 5.3 0 003.4.6 4.5 4.5 0 002.8-2 7.9 7.9 0 001-5 19.5 19.5 0 002.2 0H199.5a9.6 9.6 0 012.2.2c0 1.4-.2 2.8-.3 4.1l-.4 3.7a22.8 22.8 0 01-.6 3 3.7 3.7 0 01-1 1.8 7.3 7.3 0 01-3.4 2.7 16.6 16.6 0 01-4.8 1 41.6 41.6 0 01-5.2 0l-5-.2a11.2 11.2 0 01-4-1.4 12.6 12.6 0 01-3.7-4 24.4 24.4 0 01-2.3-5.4 32.7 32.7 0 01-1.2-6.2 43.7 43.7 0 01-.2-6.5l.5-5.8a22 22 0 011.3-5.4 10 10 0 013.2-4 15.9 15.9 0 014.9-2.4 21 21 0 015.7-1 21.9 21.9 0 016 .7 12 12 0 015.9 2.5 12.5 12.5 0 013.4 4.7 19 19 0 011.4 6 46 46 0 010 6.6 14 14 0 01-2.2.4 96.3 96.3 0 01-12.8.6h-4a19.4 19.4 0 01-2.4-.4zm9.7-12.4a5.2 5.2 0 00-1.3-.6 5 5 0 00-1.6-.2 10 10 0 00-3 .4 4.8 4.8 0 00-2 1.1 4.7 4.7 0 00-1.1 1.7 9.3 9.3 0 00-.5 2 4.8 4.8 0 00-.2 1.3c0 .2.3.4.8.5a12.2 12.2 0 002.2 0h4.6l3.2.1a9.1 9.1 0 001.4 0c.4 0 .5 0 .5-.2v-.9a6 6 0 00-.8-3A5.4 5.4 0 00190 95z"/><path id="s" class="cls-1" d="M238.4 99.7a42.8 42.8 0 01-5.6.5 26.2 26.2 0 01-5.8-.5 2.8 2.8 0 00-.2-1.9 4.8 4.8 0 00-1.3-1.7 5.6 5.6 0 00-2-1.1 5.2 5.2 0 00-2-.3 4.5 4.5 0 00-2.8 1.4 3.5 3.5 0 00-1 2.4 4.3 4.3 0 001 2.5 5.7 5.7 0 002.9 2 68.7 68.7 0 018.4 1.7 10.6 10.6 0 015.8 3.5 15 15 0 012.1 5.8 16.5 16.5 0 01-1.1 7.5 11 11 0 01-5.8 5.6 20.8 20.8 0 01-8.5 1.6 25 25 0 01-7.4-.7 16.4 16.4 0 01-5.7-2.7 12.2 12.2 0 01-5-10v-.4a39 39 0 016-.2h5.9a3.7 3.7 0 001.7 3 7.4 7.4 0 003.5 1.4 5.3 5.3 0 003.4-.7 3.2 3.2 0 001.4-3.2 3 3 0 00-.8-2.8 7.7 7.7 0 00-3-1.5 42.5 42.5 0 00-4.2-1 19.8 19.8 0 01-4.5-1.3 11.9 11.9 0 01-6.6-4.8 11.5 11.5 0 01.4-13.1 10.4 10.4 0 016-4 27.7 27.7 0 013.7-.7 43 43 0 014.7-.2 43.5 43.5 0 015 .3 40.6 40.6 0 014.5.7A10 10 0 01237 92a18.4 18.4 0 011.5 7.8z"/><path id="s-2" class="cls-1" d="M274.4 99.7a42.8 42.8 0 01-5.6.5 26.3 26.3 0 01-5.8-.5 2.8 2.8 0 00-.2-1.9 4.8 4.8 0 00-1.3-1.7 5.6 5.6 0 00-2-1.1 5.2 5.2 0 00-2-.3 4.5 4.5 0 00-2.8 1.4 3.6 3.6 0 00-1 2.4 4.2 4.2 0 001 2.5 5.7 5.7 0 002.9 2 68.7 68.7 0 018.4 1.7 10.6 10.6 0 015.7 3.5 15 15 0 012.2 5.8 16.6 16.6 0 01-1.1 7.5 11 11 0 01-5.8 5.6 20.8 20.8 0 01-8.6 1.6 25 25 0 01-7.3-.7 16.5 16.5 0 01-5.7-2.7 12.3 12.3 0 01-5-10v-.4a39 39 0 016-.2h5.9a3.7 3.7 0 001.7 3 7.3 7.3 0 003.5 1.5 5.2 5.2 0 003.4-.7 3.3 3.3 0 001.4-3.2 3 3 0 00-.8-2.9 7.9 7.9 0 00-3-1.5 40.3 40.3 0 00-4.2-.9 19.6 19.6 0 01-4.5-1.3 11.8 11.8 0 01-6.5-4.8 11.4 11.4 0 01.3-13.2 10.4 10.4 0 016-4 26 26 0 013.7-.6 40.8 40.8 0 014.7-.3 44.1 44.1 0 019.5 1 10 10 0 015.4 5.1 18.4 18.4 0 011.5 7.8z"/><path id="o" class="cls-1" d="M279.2 91a5.3 5.3 0 011.8-2 12.7 12.7 0 012.9-1.6 16.2 16.2 0 013.5-.8 32.5 32.5 0 013.8-.2 17.7 17.7 0 003.1 0 21.7 21.7 0 018 1 11.4 11.4 0 014 2.4 4.7 4.7 0 011.8 2.3 16.6 16.6 0 011 3.7 40.2 40.2 0 01.4 4.6l.1 5.2-.2 5.3a61.3 61.3 0 01-1.1 10.5 6 6 0 01-1.3 3 7.3 7.3 0 01-3.5 2.8 17.8 17.8 0 01-4.8 1 36 36 0 01-5.3 0c-1.8-.2-3.4-.2-5-.2a12.6 12.6 0 01-6.8-3.5 9.8 9.8 0 01-3-4.8 28.8 28.8 0 01-1-6q-.2-3.2 0-6.4a47.4 47.4 0 00-.2-5.9l.1-2.8a28.7 28.7 0 01.3-3 10.8 10.8 0 01.6-2.3l.8-2.3zm10 9.4a2.4 2.4 0 00-.7 1.6 41.3 41.3 0 00-.3 5.1c0 1.7 0 3.5-.2 5.4a3.5 3.5 0 001 2.8 5.2 5.2 0 002.5 1.4 8.5 8.5 0 003.1.1 7.6 7.6 0 002.6-.7 3.6 3.6 0 001.9-2.7l.5-5.1a17.7 17.7 0 00-.3-5 5.5 5.5 0 00-2.3-4 6.2 6.2 0 00-5-.7 5.2 5.2 0 00-2.7 1.8z"/><path id="n-2" class="cls-1" d="M325 91.7l1-.5a6.2 6.2 0 001-.7 14.8 14.8 0 013.8-1.9 15.3 15.3 0 014.2-.8 14.7 14.7 0 014.3.5 9.6 9.6 0 013.8 2 5.5 5.5 0 011.2 3 37.3 37.3 0 01.6 5.5v14.7l-.2 7.4v6.4a31 31 0 01-5 .3h-5v-13.9c0-1.7-.2-3.2-.3-4.6l-.1-2.2a21.5 21.5 0 00-.3-2.2 10.8 10.8 0 00-.6-2 3.1 3.1 0 00-1-1.4.2.2 0 00-.2 0 .3.3 0 01-.1-.1 6 6 0 00-1.9-.6 5.2 5.2 0 00-2.4.2 4.7 4.7 0 00-2.2 1.4 5.4 5.4 0 00-1.1 3.3 63.6 63.6 0 00.1 10.8l.1 5.4a44.4 44.4 0 01-.3 5.2v.4a11.2 11.2 0 01-2.4.4 17.5 17.5 0 01-2 0h-2.3a24.5 24.5 0 00-3.2 0q0-9.9-.2-19.7t.1-20.5l1.6.2h2.4l1.6-.2a10.8 10.8 0 001.2 0c.5-.2 1.1-.2 1.6-.3a8.8 8.8 0 011.4 0c.4 0 .6.2.6.3a14.2 14.2 0 01.2 2.3 15.7 15.7 0 000 2z"/><path id="P" class="cls-1" d="M169.8 152.2v1.1a6.6 6.6 0 010 1 16.8 16.8 0 01-2.6 7 20.2 20.2 0 01-11.8 8.8 17.4 17.4 0 01-7.5.3V181.3l.2 9.3h-.1a.1.1 0 01-.1 0 15.2 15.2 0 01-2.9.5l-3.6.2h-3.7a26 26 0 01-3.2-.3q-.2-5.8-.2-12.7v-28.5q0-7.3-.3-14a46 46 0 017.2-1.2 41.2 41.2 0 017.7-.1 38.1 38.1 0 017.6 1.4 20.5 20.5 0 016.5 3.2 16.5 16.5 0 016.8 13.1zm-14-3.4a10 10 0 00-4.6-2 12.9 12.9 0 00-5.2.2.3.3 0 00-.3 0V153.4l.2 3.1a11.2 11.2 0 00.5 2.7h.2l2.8-.1 2.8-.2a12.7 12.7 0 002.7-.6 5.7 5.7 0 002.3-1.4 5.9 5.9 0 001-2 5.5 5.5 0 000-2.3 6 6 0 00-.8-2 4.9 4.9 0 00-1.6-1.6z"/><path id="l-2" class="cls-1" d="M174 133.3l10.9.2v8l-.2 9.9-.2 11v11l.1 9.9.3 7.8a2.8 2.8 0 01-2 .5h-3.5l-3.6-.1a9 9 0 00-2.3 0q.6-7.1.5-14.4t-.4-14.6l-.3-14.6a144.6 144.6 0 01.7-14.6z"/><path id="a" class="cls-1" d="M222.5 151.6v1a7.7 7.7 0 010 1v.8c0 5.8 0 11.5.2 17a162.4 162.4 0 01-.3 17v2a1.1 1.1 0 01-1 1.3h-1a19.1 19.1 0 01-2.6-.1 17.6 17.6 0 00-2.6-.2 12.4 12.4 0 00-1.7.2 12.5 12.5 0 01-1.7 0 1.1 1.1 0 01-.8-.6 2.8 2.8 0 01-.2-1 5.9 5.9 0 01.2-1.5 4.8 4.8 0 00.1-1.4 16.8 16.8 0 01-4.8 3.3 13.4 13.4 0 01-5.7 1.4 7.3 7.3 0 01-5.4-2.2 17.7 17.7 0 01-3.6-5.4 29.1 29.1 0 01-2.1-7 38.8 38.8 0 01-.7-7 24.8 24.8 0 011-7.4 19 19 0 012.9-5.8 13.8 13.8 0 014.3-3.8 11.6 11.6 0 015.2-1.5h2.8a7.6 7.6 0 012.3.4 5 5 0 011.8 1.1 6 6 0 011.4 2.2 8.1 8.1 0 010-2.3 8.5 8.5 0 00.3-1.9 1.5 1.5 0 01.5-.1 10.7 10.7 0 011.1 0h2.2c1 0 2 0 3.3.2l4.6.3zm-23.3 16a9.4 9.4 0 00-.4 2.1v2.2a10 10 0 001.8 6 6.1 6.1 0 005.2 2.6 5.4 5.4 0 003-.7 3.8 3.8 0 001.5-1.9 10.1 10.1 0 00.5-3v-8.5a8 8 0 00-.4-2.5 1.8 1.8 0 00-1.2-1.1 10.1 10.1 0 00-2.6-.3 7.8 7.8 0 00-5.1 1.6 6.2 6.2 0 00-2.3 3.5z"/><path id="n-3" class="cls-1" d="M239 155.8l1-.6a6.6 6.6 0 001-.6 15.2 15.2 0 013.8-2 14.5 14.5 0 014.2-.7 14 14 0 014.3.5 9.4 9.4 0 013.8 2 5.6 5.6 0 011.2 3 37.3 37.3 0 01.6 5.4v14.7l-.2 7.5v6.3a30 30 0 01-5 .4h-5V177.8a65.7 65.7 0 00-.7-9 10.1 10.1 0 00-.6-2 3.1 3.1 0 00-1-1.4.3.3 0 00-.2-.1.3.3 0 01-.1 0 6.5 6.5 0 00-1.9-.6 5.5 5.5 0 00-2.4.2 4.7 4.7 0 00-2.2 1.4 5.4 5.4 0 00-1.1 3.2 67.4 67.4 0 000 10.9c.2 1.8.2 3.6.2 5.3a44.5 44.5 0 01-.3 5.3v.3a12.7 12.7 0 01-2.4.5 17.4 17.4 0 01-2 0l-2.3-.1a23 23 0 00-3.2 0l-.2-19.6q-.2-9.8.1-20.5l1.6.2h2.4l1.6-.2a8.8 8.8 0 001.2 0l1.6-.3a8.8 8.8 0 011.4 0c.4 0 .6.2.6.3a14.3 14.3 0 01.2 2.3v1.9z"/></g><path id="_5" data-name="5" d="M6.9 134.8l37.6-1.4v.3a1 1 0 00.2.5 1.2 1.2 0 01.1.6q1 9.8 5.8 13.2a13 13 0 0011 2.2q9.2-1.6 13.6-9a30.2 30.2 0 004.4-15.7 33.9 33.9 0 00-4.1-16.2 19.7 19.7 0 00-12.1-10 86.5 86.5 0 00-14.5-1q-7.5.1-15.2.5t-14.9.7a98.7 98.7 0 01-12.7-.3c-.4 0-.6 0-.6-.3V74.4v-22q0-10.7-.4-21.7L5 7.4h.3l9-.3 20.3-.5 26-.5 26.1-.4a1715.9 1715.9 0 0131.7 0 8.6 8.6 0 01.2 3.3v7.2l-.2 9.3a433 433 0 00-.8 19.6q-1.9.3-7.6.5l-13.3.4a1240.9 1240.9 0 00-31.7.8H44.8v.9a.5.5 0 00.2.4.6.6 0 010 .4 19.7 19.7 0 01.6 4.7 7.6 7.6 0 001 4.3l.4.3.2.2h.3a74.4 74.4 0 0127.8-.5q16 2.4 25.8 12.3A65 65 0 01116 94a102.4 102.4 0 015.7 30.5 184 184 0 01-1.5 32.1 38.4 38.4 0 01-12.2 20.8 61.8 61.8 0 01-22.4 12.9 86 86 0 01-27.2 4.3 69.1 69.1 0 01-26.2-4.8 46.7 46.7 0 01-19.5-14.5q-7.7-9.7-7.4-24.5a84.7 84.7 0 011.6-15.4z" fill="#e9224d"/></svg>