<svg aria-hidden="true" xmlns="http://www.w3.org/2000/svg" viewBox="0 0 350 200"><defs><style>.cls-1{fill:#4d4d4d}</style></defs><g id="Minute_Lesson_Plan" data-name="Minute Lesson Plan"><path id="M" class="cls-1" d="M168.6 45l-.2 22.7a18.1 18.1 0 00-2.3-.2h-7q-.2-3-.2-6.6v-7.2c0-2.4-.1-4.9-.3-7.2l-.5-6.5a15.6 15.6 0 00-1.2 2.4 183.4 183.4 0 00-2.4 6.6c-.4.9-.7 1.3-.9 1.3s-.5-.2-.8-.7a11.6 11.6 0 01-1-1.9l-1-2.4-.8-2.3-.8-2.5a119.3 119.3 0 00-.4 13.5q.2 6.8.6 13.4a27.9 27.9 0 01-5 .3h-5l-.2-.3a8.8 8.8 0 01-.1-1.4l-.1-3.2V48.3 36l.1-17a9.5 9.5 0 012.2-.3 18.7 18.7 0 012.4 0l2.6.1h2.6A8.2 8.2 0 01150 21l1.2 3 1.1 3.2a11.3 11.3 0 001.1 2.3.6.6 0 00.5.2 89.4 89.4 0 002.9-8.4 10.8 10.8 0 011.2-2.6 11 11 0 001.9 0l2.8-.2H168.6q-.2 6.7 0 13.3t.3 6.7l-.3 6.7z"/><path id="i" class="cls-1" d="M182.8 32h1.2v.2q0 8.6-.3 17.5t.2 17.5c-.2.3-.8.5-1.7.5H179l-3.2-.1a7 7 0 00-2 0c.3-3 .4-6 .3-9l-.1-9.2-.2-9a82.5 82.5 0 01.5-8.6 2.8 2.8 0 011 0h1l2.5.2h4zm-8.7-15.5l9.6.2v1.5l.1 2.4v5.2a1.8 1.8 0 01-1.2.5 13.8 13.8 0 01-2.4.2l-3-.2a28 28 0 00-2.9 0c0-1.4 0-2.8-.2-4.3s0-3.3 0-5.5z"/><path id="n" class="cls-1" d="M198.3 36l.8-.5a5.6 5.6 0 001-.6 12.6 12.6 0 013.3-1.7 12.9 12.9 0 013.7-.7 12.7 12.7 0 013.8.5 8.4 8.4 0 013.4 1.7 4.8 4.8 0 011 2.7 31.8 31.8 0 01.6 4.8v13l-.2 6.7v5.6a28.6 28.6 0 01-4.4.3H207l-.1-3.7v-8.6a57.6 57.6 0 00-.4-6 19.2 19.2 0 00-.2-2 8.3 8.3 0 00-.5-1.8 2.7 2.7 0 00-.9-1.2.3.3 0 00-.1 0 .2.2 0 01-.2-.2 6.5 6.5 0 00-1.6-.4 5 5 0 00-2.2.1 4.2 4.2 0 00-2 1.3 4.7 4.7 0 00-1 2.9 56.4 56.4 0 00.2 9.6l.1 4.7a38.4 38.4 0 01-.3 4.7v.3a10.6 10.6 0 01-2 .4 13.7 13.7 0 01-1.9 0l-2-.1a20.7 20.7 0 00-2.8 0l-.2-17.4q-.2-8.7.1-18h5a8.3 8.3 0 001-.2l1.4-.2a9.1 9.1 0 011.3 0c.3 0 .5.1.5.3a12.1 12.1 0 01.1 2 16 16 0 000 1.7z"/><path id="u" class="cls-1" d="M238 63.8l-.8.5a6.3 6.3 0 00-.9.5 13.3 13.3 0 01-3.3 1.7 12.9 12.9 0 01-3.8.7 12.7 12.7 0 01-3.8-.4 8.4 8.4 0 01-3.3-1.7 5 5 0 01-1.1-2.7 34.2 34.2 0 01-.5-4.9v-6.2-6.8l.2-6.6-.1-5.6a28.2 28.2 0 014.4-.3h4.4l.2 3.7v8.6l.1 4.1.2 2a19.2 19.2 0 00.2 2 9 9 0 00.5 1.7 2.8 2.8 0 001 1.2.2.2 0 01.2.1 6 6 0 001.7.5 4.8 4.8 0 002.1-.1 4.2 4.2 0 002-1.3 4.8 4.8 0 001-2.9 55.3 55.3 0 00-.2-9.6l-.1-4.7a28.2 28.2 0 01.3-4.7v-.3a10.6 10.6 0 012.1-.4 13.7 13.7 0 011.8 0l2 .1a19.2 19.2 0 002.9 0l.2 17.4q.2 8.7-.1 18h-5a6.6 6.6 0 00-1 .2l-1.5.1a9.1 9.1 0 01-1.2 0c-.4 0-.6 0-.6-.2a12.1 12.1 0 01-.1-2 16.4 16.4 0 000-1.7z"/><path id="t" class="cls-1" d="M265.3 19.1v13.5l4.6-.2 6.1-.4a2.7 2.7 0 01.6 1.7 23.4 23.4 0 010 2.3l-.2 2.6a10.4 10.4 0 000 2.3h-11v14.3a4.8 4.8 0 002.1 1.5 15.6 15.6 0 003 1 19.6 19.6 0 003 .3 26.1 26.1 0 002.9 0l.3 2.2.2 2.5a18 18 0 010 2.5 9.8 9.8 0 01-.5 2.4 57.7 57.7 0 01-5.9 0 32.8 32.8 0 01-5.7-.8 16.1 16.1 0 01-4.8-2 7.2 7.2 0 01-3-3.4 74.8 74.8 0 01-1-10.3V41H250.7l.2-8.6h5.1l-.1-3.3V22a27.4 27.4 0 01.1-3 10.3 10.3 0 012 0l2.3.1 2.4.2a14.7 14.7 0 002.5-.2z"/><path id="e" class="cls-1" d="M288.5 49.8v1.3l.2 3.5a5.8 5.8 0 00.9 2.6 5.4 5.4 0 002.4 2.4 4.8 4.8 0 003 .5 4 4 0 002.6-1.7 7 7 0 00.8-4.4 15.4 15.4 0 002 0l2.5-.1a19.3 19.3 0 012.5 0 8.5 8.5 0 012 .2c0 1.3-.2 2.5-.3 3.6l-.4 3.3a18 18 0 01-.5 2.6 3 3 0 01-.8 1.6 6.6 6.6 0 01-3.1 2.4 15 15 0 01-4.2.8 39.9 39.9 0 01-4.6 0l-4.4-.1a10.1 10.1 0 01-3.7-1.3 11.2 11.2 0 01-3.2-3.5 21.4 21.4 0 01-2-4.7 27.8 27.8 0 01-1-5.5 40.2 40.2 0 01-.2-5.9l.4-5a19.7 19.7 0 011.1-4.8 9 9 0 012.9-3.5 13.8 13.8 0 014.3-2.2 18.8 18.8 0 015-.8 19.4 19.4 0 015.3.5 10.7 10.7 0 015.3 2.3 11 11 0 013 4.1 16.2 16.2 0 011.2 5.3 38.5 38.5 0 010 6 13.3 13.3 0 01-1.9.2 124.5 124.5 0 01-11.3.6l-3.5-.1a14.4 14.4 0 01-2.3-.2zm8.6-11a4.4 4.4 0 00-2.5-.7 9 9 0 00-2.7.3 4 4 0 00-2.7 2.6 9.8 9.8 0 00-.5 1.8 4.5 4.5 0 000 1c0 .3.2.4.6.5a12.1 12.1 0 002 0h4l2.9.1a9.6 9.6 0 001.3 0q.4 0 .4-.2v-.7a5.3 5.3 0 00-.8-2.7 4.8 4.8 0 00-2-2z"/><path id="L" class="cls-1" d="M168.5 117.8l.1 4a7.7 7.7 0 01-.1 1.8c-.2.4-.4.6-.6.7h-1.3a16.7 16.7 0 00-2 0l-4.1.1H138.7V123l.3-9.6.2-8v-7.2-7.1l-.2-7.7-.2-9a9.7 9.7 0 012.2-.5 28.3 28.3 0 013.2-.2 26.5 26.5 0 013.4.3 9.8 9.8 0 012.6.6l-.1 9.5v9.7l.2 9.7v9.5a7.9 7.9 0 011.9-.1l3.2.1 4 .2 4 .2h3.3a16.7 16.7 0 002 0 12 12 0 01-.1 1.6l-.1 1.5a7.6 7.6 0 000 1.2z"/><path id="e-2" class="cls-1" d="M179.8 106.5v1.3l.2 3.5a5.8 5.8 0 00.9 2.6 5.4 5.4 0 002.4 2.4 4.7 4.7 0 003 .5 4 4 0 002.5-1.8 7 7 0 001-4.3 15.2 15.2 0 001.8 0l2.5-.1h2.6a8.4 8.4 0 012 .2 315.8 315.8 0 01-.7 7 21.3 21.3 0 01-.5 2.6 3.2 3.2 0 01-.8 1.5 6.4 6.4 0 01-3.1 2.4 14.5 14.5 0 01-4.2.8 36 36 0 01-4.7 0l-4.3-.1a9.8 9.8 0 01-3.7-1.3 11.1 11.1 0 01-3.2-3.5 21.8 21.8 0 01-2-4.7 28.5 28.5 0 01-1.1-5.5 38.9 38.9 0 01-.2-5.8l.5-5.1a19.2 19.2 0 011.1-4.8 9 9 0 012.8-3.5 14 14 0 014.4-2.2 18.5 18.5 0 015-.8 19.7 19.7 0 015.3.6 10.7 10.7 0 015.3 2.2 11 11 0 013 4.1 16.8 16.8 0 011.2 5.4 41.2 41.2 0 010 5.8 13.3 13.3 0 01-1.9.3 90.8 90.8 0 01-11.3.6H182a15.3 15.3 0 01-2.3-.3zm8.6-11a5 5 0 00-1.1-.5 4.3 4.3 0 00-1.4-.2 8.7 8.7 0 00-2.7.3 4.2 4.2 0 00-2.7 2.5 7.7 7.7 0 00-.5 1.8 4.5 4.5 0 00-.1 1.1c0 .2.2.4.7.4a11.1 11.1 0 002 .1h6.8a7.2 7.2 0 001.3 0l.4-.1v-.8a5.3 5.3 0 00-.7-2.7 4.8 4.8 0 00-2-1.9z"/><path id="s" class="cls-1" d="M231.1 99.8a40 40 0 01-5 .4 22.7 22.7 0 01-5-.4 2.5 2.5 0 00-.3-1.7 4.5 4.5 0 00-1.1-1.5 5 5 0 00-1.7-1 4.6 4.6 0 00-1.9-.3 4 4 0 00-2.4 1.3 3.2 3.2 0 00-.8 2 3.7 3.7 0 00.8 2.3 5.1 5.1 0 002.5 1.7 61 61 0 017.4 1.6 9.4 9.4 0 015.1 3 13.2 13.2 0 012 5.2 14.7 14.7 0 01-1 6.6 9.7 9.7 0 01-5.2 5 18.4 18.4 0 01-7.5 1.4 22 22 0 01-6.6-.6 14.5 14.5 0 01-5-2.4 10.8 10.8 0 01-4.4-8.9v-.3a33.8 33.8 0 015.3-.2h5.2a3.3 3.3 0 001.5 2.7 6.5 6.5 0 003.1 1.2 4.7 4.7 0 003-.6 2.9 2.9 0 001.3-2.8 2.7 2.7 0 00-.8-2.5 6.8 6.8 0 00-2.6-1.4 36.3 36.3 0 00-3.7-.8 17.4 17.4 0 01-4-1.2 10.5 10.5 0 01-5.8-4.2 10.2 10.2 0 01.3-11.7 9.2 9.2 0 015.4-3.5 23.2 23.2 0 013.3-.6 41 41 0 014.1-.2 38 38 0 014.4.3 36.3 36.3 0 014 .6 8.8 8.8 0 014.7 4.5 16.3 16.3 0 011.4 7z"/><path id="s-2" class="cls-1" d="M263 99.8a40 40 0 01-5 .4 22.7 22.7 0 01-5.1-.4 2.5 2.5 0 00-.2-1.7 4.5 4.5 0 00-1.1-1.5 5 5 0 00-1.7-1 4.6 4.6 0 00-2-.3 4 4 0 00-2.4 1.3 3.2 3.2 0 00-.8 2 3.7 3.7 0 00.9 2.3 5.1 5.1 0 002.5 1.7 61 61 0 017.4 1.6 9.4 9.4 0 015 3 13.2 13.2 0 012 5.2 14.7 14.7 0 01-1 6.6 9.7 9.7 0 01-5.1 5 18.4 18.4 0 01-7.6 1.4 22 22 0 01-6.5-.6 14.5 14.5 0 01-5-2.4 10.8 10.8 0 01-4.4-8.9v-.3a33.8 33.8 0 015.3-.2h5.2a3.3 3.3 0 001.5 2.7 6.5 6.5 0 003.1 1.3 4.7 4.7 0 003-.6 2.9 2.9 0 001.3-2.8 2.7 2.7 0 00-.8-2.6 6.8 6.8 0 00-2.6-1.3 36.3 36.3 0 00-3.7-.8 17.4 17.4 0 01-4-1.2 10.5 10.5 0 01-5.8-4.2 10.1 10.1 0 01.3-11.7 9.2 9.2 0 015.3-3.6 22.9 22.9 0 013.3-.5 41 41 0 014.1-.3 39.2 39.2 0 018.5 1 8.8 8.8 0 014.7 4.5 16.3 16.3 0 011.4 6.9z"/><path id="o" class="cls-1" d="M267.2 92a4.7 4.7 0 011.6-1.9 10.7 10.7 0 012.6-1.3 14.5 14.5 0 013-.7 27.1 27.1 0 013.4-.2 15.6 15.6 0 002.8 0 19.3 19.3 0 017 1 10.2 10.2 0 013.6 2.1 4.2 4.2 0 011.6 2 14.9 14.9 0 01.8 3.3 35.2 35.2 0 01.4 4.1l.1 4.6-.1 4.7-.4 5c0 1.7-.4 3-.6 4.3a5.3 5.3 0 01-1.1 2.6 6.4 6.4 0 01-3.2 2.4 15.6 15.6 0 01-4.2.9 30.5 30.5 0 01-4.7 0l-4.4-.2a11.2 11.2 0 01-6-3.1 8.7 8.7 0 01-2.7-4.3 24.9 24.9 0 01-.8-5.3q-.2-2.8 0-5.6a40.6 40.6 0 00-.1-5.2v-2.5a24.8 24.8 0 01.3-2.6 10 10 0 01.5-2.1l.6-2zm8.9 8.4a2.2 2.2 0 00-.7 1.4 35.6 35.6 0 00-.2 4.5c0 1.5 0 3-.2 4.7a3 3 0 00.9 2.5 4.7 4.7 0 002.2 1.2 7.6 7.6 0 002.7.1 6.8 6.8 0 002.4-.6 3.2 3.2 0 001.6-2.4l.5-4.5a16 16 0 00-.3-4.4 5 5 0 00-2-3.6 5.5 5.5 0 00-4.5-.5 4.6 4.6 0 00-2.4 1.5z"/><path id="n-2" class="cls-1" d="M307.8 92.7l.8-.5a5.6 5.6 0 001-.6 13 13 0 013.2-1.7 13 13 0 017.6-.3 8.4 8.4 0 013.4 1.8 5 5 0 011 2.7 34.2 34.2 0 01.6 4.8v13l-.2 6.6v5.6a28.6 28.6 0 01-4.4.4h-4.4l-.2-3.7V112a57.6 57.6 0 00-.3-6 19.2 19.2 0 00-.2-2 9 9 0 00-.5-1.7 2.8 2.8 0 00-.9-1.2.2.2 0 00-.1 0 .3.3 0 01-.2-.2 5.7 5.7 0 00-1.7-.5 4.7 4.7 0 00-2.1.2 4.2 4.2 0 00-2 1.3 4.7 4.7 0 00-1 2.8 56.7 56.7 0 00.2 9.6v4.7a38.5 38.5 0 01-.2 4.7v.3a10.6 10.6 0 01-2.1.4 13.7 13.7 0 01-1.8 0h-2a22.4 22.4 0 00-2.9 0l-.2-17.5q-.2-8.8.2-18l1.4.1h2.1l1.5-.1a8.3 8.3 0 001-.1l1.4-.2a9.1 9.1 0 011.3 0c.3 0 .5.1.5.3a12.1 12.1 0 01.1 2 16.4 16.4 0 000 1.7z"/><path id="P" class="cls-1" d="M170.4 146.2v1a6.5 6.5 0 010 .9 15 15 0 01-2.3 6.2 17.9 17.9 0 01-10.4 7.7 15.4 15.4 0 01-6.7.3v9.6l.2 8.3a.2.2 0 01-.2 0 13.3 13.3 0 01-2.5.4l-3.2.2H142a24.5 24.5 0 01-2.8-.3q-.2-5.1-.2-11.2v-25.2q0-6.5-.3-12.4a41.3 41.3 0 016.4-1.1 36.8 36.8 0 016.8 0 33.2 33.2 0 016.7 1.2 18 18 0 015.8 2.8 14.7 14.7 0 016 11.6zm-12.4-3a8.7 8.7 0 00-4.1-1.8 11.4 11.4 0 00-4.6.2.3.3 0 00-.2 0 24.3 24.3 0 010 2.7v2.9l.1 2.7a10 10 0 00.5 2.4h.2l2.4-.1 2.5-.2a11.7 11.7 0 002.4-.6 5 5 0 002-1.2 5.2 5.2 0 00.8-1.8 4.8 4.8 0 00.1-2 5.3 5.3 0 00-.7-1.8 4.5 4.5 0 00-1.4-1.4z"/><path id="l-2" class="cls-1" d="M174 129.5l9.7.2v7l-.2 8.8V173.6l.2 7a2.5 2.5 0 01-1.8.4h-3l-3.2-.1a7.9 7.9 0 00-2 0q.5-6.3.4-12.8t-.4-12.8l-.2-13a126 126 0 01.6-12.8z"/><path id="a" class="cls-1" d="M217 145.7l.1.8v1.6q-.2 7.7 0 15a144.3 144.3 0 01-.1 15v1.9a1 1 0 01-1 1h-.8a16.4 16.4 0 01-2.3 0 16.3 16.3 0 00-2.3-.2 11 11 0 00-1.5.2 11.3 11.3 0 01-1.5 0 1 1 0 01-.7-.5 2.5 2.5 0 01-.2-1 5 5 0 01.2-1.3 4 4 0 00.1-1.2 14.9 14.9 0 01-4.3 2.9 11.9 11.9 0 01-5 1.2 6.4 6.4 0 01-4.8-2 15.6 15.6 0 01-3.2-4.7 26.6 26.6 0 01-1.9-6.1 34.5 34.5 0 01-.6-6.2 21.8 21.8 0 011-6.5 17 17 0 012.5-5.1 12.3 12.3 0 013.8-3.4 10.1 10.1 0 014.6-1.4h2.4a6.5 6.5 0 012 .4 4.4 4.4 0 011.6 1 5.4 5.4 0 011.2 1.9 7.5 7.5 0 01.1-2 7.7 7.7 0 00.2-1.7 1.3 1.3 0 01.5-.1 8.3 8.3 0 011 0h1.9l3 .1 4 .4zm-20.6 14.1a8.6 8.6 0 00-.3 1.9l-.1 1.9a8.8 8.8 0 001.7 5.4 5.4 5.4 0 004.6 2.2 4.8 4.8 0 002.7-.6 3.3 3.3 0 001.2-1.7 8.8 8.8 0 00.5-2.7v-7.5a6.8 6.8 0 00-.4-2.2 1.6 1.6 0 00-1-1 9.3 9.3 0 00-2.3-.3 7 7 0 00-4.6 1.4 5.5 5.5 0 00-2 3.2z"/><path id="n-3" class="cls-1" d="M231.6 149.4l1-.5a5.6 5.6 0 00.8-.6 13.6 13.6 0 013.3-1.7 12.9 12.9 0 013.8-.7 12.7 12.7 0 013.8.4 8.4 8.4 0 013.3 1.8 5 5 0 011.1 2.7 31.5 31.5 0 01.5 4.8l.1 6.2v6.8l-.2 6.6v5.6a28.6 28.6 0 01-4.4.4h-4.4l-.2-3.7v-8.7a57.4 57.4 0 00-.3-6 19.2 19.2 0 00-.2-2 9 9 0 00-.5-1.7 2.8 2.8 0 00-1-1.2.2.2 0 000-.1.2.2 0 01-.2 0 6 6 0 00-1.7-.5 4.8 4.8 0 00-2.1.1 4.2 4.2 0 00-2 1.3 4.8 4.8 0 00-1 2.8 56.4 56.4 0 00.2 9.6v4.8a38.5 38.5 0 01-.2 4.6v.3a10.6 10.6 0 01-2.1.4 13.7 13.7 0 01-1.8 0h-2a19.2 19.2 0 00-2.9 0l-.2-17.4q-.2-8.7.1-18h5a6.6 6.6 0 001-.2l1.4-.2a9.1 9.1 0 011.3 0c.4 0 .5.1.5.3a12.1 12.1 0 01.2 2 16 16 0 000 1.7z"/></g><path id="_5" data-name="5" d="M26.2 130.8l33.4-1.2v.2a1 1 0 000 .5 1.1 1.1 0 01.2.5q1 8.6 5.2 11.7a11.5 11.5 0 009.6 1.9q8.2-1.4 12-7.9a26.7 26.7 0 004-14 30 30 0 00-3.7-14.3 17.5 17.5 0 00-10.7-8.9 76.2 76.2 0 00-12.8-.8q-6.7 0-13.5.4t-13.1.6a86.7 86.7 0 01-11.3-.2c-.3 0-.5 0-.5-.2V77.3 57.8q0-9.5-.3-19.1L24.6 18h.2l8-.2 18-.5 23-.4 23.1-.4a1304 1304 0 0128 .1 7.9 7.9 0 01.2 2.8v6.4L125 34a383.9 383.9 0 00-.7 17.4l-6.7.4-11.8.4c-4.4 0-9.1.2-14 .4l-14 .3-11.4.1h-6.5v.7a.4.4 0 00.1.3.5.5 0 01.1.4 17.6 17.6 0 01.5 4.2 6.6 6.6 0 001 3.8l.2.2.2.3h.2a65.8 65.8 0 0124.7-.5q14.1 2.1 22.8 11a57.5 57.5 0 0113.1 21.2 90.5 90.5 0 015 27 162.4 162.4 0 01-1.2 28.4 34 34 0 01-10.8 18.4 54.8 54.8 0 01-19.9 11.4 76 76 0 01-24 3.8 61.2 61.2 0 01-23.2-4.3 41.4 41.4 0 01-17.2-12.8q-6.8-8.5-6.6-21.6a74.2 74.2 0 011.4-13.7z" fill="#e9224d"/></svg>