<svg aria-hidden="true" xmlns="http://www.w3.org/2000/svg" viewBox="0 0 350 200"><defs><style>.cls-1{fill:#7c4ec4}.cls-2{fill:#5e3883}.cls-3{fill:#f5ead7}.cls-4{fill:#cdcfd0}.cls-5{fill:#7b7c7c}.cls-6{fill:#fff}.cls-7{fill:#231f20}.cls-9{fill:#c4abcf}.cls-10{fill:#010101}</style></defs><path d="M131.2 36.1a58.4 58.4 0 00-8.7-2.4c-5.1-1-10.8-1.2-15.1 2.8-4.2 3.7-5.8 11.2-1.7 15.5 4.5 4.7 13.8 3.8 19.6 3.3 1.2-.1 10.9-.8 11.4-2.5l4.1-11.9c.3-.8-8.7-4.4-9.6-4.8z" class="cls-1"/><path d="M118 56.2c-4.7 0-9.6-.8-12.5-3.9a9.3 9.3 0 01-2.5-7 13.2 13.2 0 014.1-9c4.8-4.3 11.1-3.7 15.5-3a57.7 57.7 0 018.7 2.6c.5.2 3 1.1 5.3 2.2 4.5 2 4.7 2.6 4.6 3v.3c-.5 1.3-2.7 7.5-4 11.7-.4.8-2 1.8-11.3 2.6H125a69.8 69.8 0 01-7 .5zm-.7-22.7a13.5 13.5 0 00-9.4 3.3 12.5 12.5 0 00-3.9 8.5 8.7 8.7 0 002.3 6.4c4.3 4.5 13.1 3.7 19 3.2h.7c9.5-.8 10.5-1.8 10.6-2.1l2-6 2.1-5.8c-.5-.8-6.7-3.5-9.4-4.5a57.4 57.4 0 00-8.6-2.4 28.6 28.6 0 00-5.4-.6zm23.2 7.3a.2.2 0 000 .2v-.1z" class="cls-2"/><path d="M121 37.8c-2.9-.5-5.4-.7-8 1.7-2.4 2.2-3.4 6.7-1 9.2 2.6 2.7 7.9 2 11.3 1.7 10.3-1.6 5.9-8 4.4-9.6s-5-2.7-6.7-3z" class="cls-3"/><path d="M245 59.6c-3-4.6-8.5-6-13.6-6.7a53 53 0 00-9-.4c-1 0-10.6.5-10.6 1.4l.3 11.2c0 1.6 9 5 10.2 5.4 5.4 2 14 5.4 19.6 2.8 5.3-2.5 6-9.4 3.1-13.7z" class="cls-1"/><path d="M237 74.9c-5 0-10.6-2.2-14.7-3.8l-.6-.2c-8.7-3.4-9.9-4.7-9.9-5.5l-.3-11.3c0-.5 0-1.2 10.6-1.7h.3a52.7 52.7 0 019.1.3c4.8.7 10.7 2 13.9 6.9a11.1 11.1 0 011.3 8.8 8.4 8.4 0 01-4.5 5.4 11.9 11.9 0 01-5.2 1zm-24.4-9.4c0 .2.7 1.4 9.4 4.8l.5.2c5.2 2 13.8 5.4 19.3 2.8a7.7 7.7 0 004.1-5 10.3 10.3 0 00-1.2-8.2c-3-4.6-8.6-6-13.3-6.6a51.1 51.1 0 00-9-.3h-.2c-8 .4-9.6.9-10 1z" class="cls-2"/><path d="M238.7 60.4c-1.7-2.7-4.2-3.2-7.1-3.7-1.7-.2-5.4-.4-7.3.7s-8 5.3 1.4 9.5c3.1 1.2 8 3.2 11.3 1.7 3-1.5 3.3-5.5 1.7-8.2z" class="cls-3"/><path d="M159.1 5.5c-.8-3.7-8.6-1.6-10.7-.7-11.7 4.7-18.7 23.4-10.7 40l18.4-13.2c.2-.2-6-9.9-2.8-17.4 1.4-3.2 6.2-5.8 5.8-8.7z" class="cls-4"/><path d="M137.7 45.3l-.2-.2a34.3 34.3 0 01-1.4-27.2c2.5-6.5 7-11.4 12.1-13.5 1.4-.5 7-2.3 9.8-.8a2.7 2.7 0 011.5 1.8c.3 2-1.3 3.6-3 5.4a14.2 14.2 0 00-2.9 3.5c-1.7 4.1-.8 9.7 2.6 16.4.4.8.5 1 .2 1.2l-17.6 12.7-1.1.7zM155.2 4a20.2 20.2 0 00-6.7 1.4c-5 2-9.2 6.7-11.7 13a33.5 33.5 0 001.1 26l17.8-12.8-.2-.4c-3.5-7-4.4-12.7-2.6-17a14.8 14.8 0 013-3.8c1.6-1.6 3-3.1 2.9-4.6a2 2 0 00-1.1-1.3 5.5 5.5 0 00-2.5-.5z" class="cls-5"/><path d="M148.5 31l3.6-1.3c-5.7-16.4 3-22.2 3-22.2-12.2 4.2-6.6 23.5-6.6 23.5z" class="cls-6"/><path d="M211.6 15.5c-1.7 2.4 1.3 7 1 10.4-.8 8.1-10.8 13.7-10.7 14l10 20.4c15-10.9 17.6-30.6 9.5-40.3-1.5-1.8-7.3-7.4-9.8-4.5z" class="cls-4"/><path d="M211.7 60.9L201.5 40c0-.3 0-.4.8-1 2.3-1.5 9.3-6.5 10-13.1a14.3 14.3 0 00-.8-4.6c-.7-2.3-1.3-4.5-.3-6a2.7 2.7 0 012.3-1c3 0 7 4 8.2 5.4a23 23 0 014.4 17.6 34.2 34.2 0 01-14 23.3zM202.4 40l9.6 19.7a33.4 33.4 0 0013.3-22.5c.8-6.7-.7-12.9-4.2-17-1.4-1.7-5.1-5.1-7.6-5.2a2.1 2.1 0 00-1.6.7c-.9 1.2-.3 3.2.3 5.3a14.6 14.6 0 01.9 4.9c-.7 7-8 12-10.3 13.7z" class="cls-5"/><path d="M206.4 40l2.5 3s14-14.4 5.2-23.9c0 0 5 9.2-7.7 21z" class="cls-6"/><path d="M196.4 33.4l-31.3-6C126.6 24 130.7 67 130.7 67v-.4c45 34.6 84 12.1 84 12.1 7.9-38.3-18.3-45.3-18.3-45.3z" class="cls-1"/><path d="M183.5 86a86 86 0 01-52.8-19.2h-.4a55.4 55.4 0 01.5-11.8c.8-6 3.1-14.5 9.1-20.6s14.5-8.5 25.3-7.6l31.3 6a26.9 26.9 0 0112.3 8.5c9.3 11 8.5 26.3 6.3 37.3v.2h-.1a66.6 66.6 0 01-31.5 7.3zM131 66a83.3 83.3 0 0058.5 19 66.5 66.5 0 0024.8-6.9c2.2-10.8 3-25.8-6-36.4a26.7 26.7 0 00-12-8.3l-31.3-6c-10.4-.9-18.7 1.6-24.5 7.5C130.4 45 130.8 62.4 131 66z" class="cls-2"/><path d="M154.8 44.5c-11.7-2-11.8 19.9-11.8 19.9l18.5 8.6s9.2-26-6.7-28.5z" class="cls-6"/><path d="M154.3 48.5c-4.4.2-8 5.4-7.9 11.8s3.8 11.6 8.2 11.5 8-5.4 7.9-11.8-3.7-11.6-8.2-11.5z" class="cls-7"/><path d="M154.8 54.2a2.5 2.5 0 102.4 2.4 2.5 2.5 0 00-2.4-2.4zM199 52c-17-4-17.7 24.8-17.7 24.8l21.6-3.5s7.6-18.5-4-21.3z" class="cls-6"/><path d="M197.9 55.9c-4.2-1.7-9.3 1.9-11.7 7.8s-1 12.1 3.2 13.8 9.3-1.9 11.7-7.9 1-12-3.2-13.7z" class="cls-7"/><path d="M194.7 60.4a2.5 2.5 0 102.5 2.4 2.4 2.4 0 00-2.5-2.4z" class="cls-6"/><path d="M210.5 73.7c-11.7-4.2-22.8 5.4-39.7 2.1-16.5-3.3-22.7-15.2-37.8-12.3-24.8 4.7-24.8 60.9 28 67.7 70.3 9 70-50.2 49.5-57.5z" class="cls-3"/><path fill="#938c81" d="M175 132.5a109.3 109.3 0 01-14-1 53.6 53.6 0 01-33.5-16A41.2 41.2 0 01116.6 89c-.4-13.4 6.3-24.1 16.4-26 8.9-1.7 14.6 1.6 21.2 5.4 4.9 2.7 9.9 5.5 16.7 7 8.5 1.6 15.6 0 21.8-1.5s12-2.7 18-.6c9.3 3.3 14.4 16.9 11.2 30.1a35 35 0 01-17.2 22.3c-8 4.4-18 6.7-29.7 6.7zm-14.3-1.7c48.1 6.2 58.1-19.5 60-27.5 3-12.7-1.8-26.1-10.7-29.3-5.7-2-11.2-.7-17.5.7S179 78 170.4 76.1c-7-1.3-12.3-4.3-17-7-6.4-3.7-12-6.9-20.7-5.3C123 65.7 116.6 76 117 89.1a40.4 40.4 0 0010.6 25.8c7.8 8.6 19.2 14 33 15.9z"/><path d="M187.8 89.2a11.3 11.3 0 005 3.4c12.4-4.6 10.3-10.2 10.3-10.2-4.4-6.4-16 2-15.3 6.8zM142 73.8c-2.4 3.3 1.2 7.3 4.3 10.5l9-1.4c-6.3-15.1-13.2-9-13.2-9z" class="cls-9"/><path d="M184 33.6c4.5-2 14 4.7 14 4.7-2-8-12.7-8.7-12.7-8.7 2.2-2.6 9.3-.6 9.3-.6-6.3-6.3-13.8-2-13.8-2a6.9 6.9 0 00-2.2-5 6.2 6.2 0 00-2.5 4.4c-6-6.3-12.7-4.8-12.7-4.8s5.8 2 7 6.5c-9.3-1.8-12.9 5-12.9 5 5.5-3.3 12.3-.1 12.3-.1-9.2 2.2-4.4 10.6-4.4 10.6.8-7.8 11.2-9 11.2-9a15.5 15.5 0 0112.7 9s1.8-7.3-5.3-10z" class="cls-1"/><path d="M165.7 45l-.6-1.1c0-.2-2.2-4-.8-7.4a6.8 6.8 0 014.3-3.6c-2-.7-6.8-1.9-10.9.6l-1.1.7.6-1.2a10.8 10.8 0 013-3.3 12.8 12.8 0 019.6-2c-1.4-3.9-6.5-5.6-6.5-5.6l-1.3-.5 1.3-.3c.3 0 6.6-1.5 12.5 4.3a6.8 6.8 0 012.5-3.8l.3-.2.2.2a7.3 7.3 0 012.4 4.7 12 12 0 0113.8 2.3l1 1-1.4-.4s-5.8-1.6-8.3 0c2.6.4 10.5 2 12.2 8.8l.2 1-.8-.6c-.1 0-8.2-5.6-12.7-4.9 6.2 3 4.5 10 4.5 10l-.3 1.2-.4-1.1a15.2 15.2 0 00-12.4-8.8 18.6 18.6 0 00-5.2 1.6c-3.4 1.6-5.3 4-5.6 7.1zm-2.6-13.4a17 17 0 016.6 1.4l1 .5-1 .2c-2.5.7-4.2 1.8-5 3.5a7.6 7.6 0 00.4 5.5c1.6-7 11-8.1 11.2-8.1h.1a16.1 16.1 0 0112.5 8.1 7.7 7.7 0 00-5.2-8.3l-1-.4 1-.4c3.8-1.7 11 2.5 13.5 4.1-2.6-6.6-12-7.4-12.1-7.4h-.8l.5-.5c1.7-2 6-1.5 8.3-1-5.8-4.6-12.2-1-12.3-1l-.6.4v-.7a6.4 6.4 0 00-2-4.5 5.8 5.8 0 00-2 3.8v.9l-.7-.7a14.3 14.3 0 00-10.8-4.8c1.8 1 5 2.9 5.8 6.2l.1.5h-.6c-6.4-1.3-10 1.8-11.5 3.6a12 12 0 014.6-1z" class="cls-2"/><path d="M212 93c-2.7-2.7-8.6-1.3-13.1 3.2s-6 10.4-3.2 13.2 8.7 1.4 13.2-3.1 6-10.5 3.2-13.2zM128.6 82c-3.2 2.3-3.3 8.5.5 13.6s9.8 7.4 13 5.2 3.1-9.2-.6-14.4-9.7-6.7-12.9-4.4z" class="cls-9"/><path d="M192.7 112a4.2 4.2 0 01-2.8-2.5.9.9 0 00-1-.6h-.1a.7.7 0 00-.4 1 6 6 0 00.8 1.5 35.8 35.8 0 01-24.6 5.9 25 25 0 01-18.2-12.5 5.7 5.7 0 001.5-1.6.8.8 0 00-.3-1.1.8.8 0 00-1 .2 3.8 3.8 0 01-3.3 1.9.7.7 0 00-.8.6.6.6 0 000 .1.8.8 0 00.7.8h.1a5.5 5.5 0 001.6-.2 26 26 0 0019.6 13.4 35.3 35.3 0 0025.9-6.5 5.9 5.9 0 002 1h.1a.9.9 0 001-.6.9.9 0 00-.8-.8z" class="cls-7"/><path d="M192.5 82.8c-3.5 1.7-5.7 5-5.2 7.6s3.8 3.3 7.2 1.7 5.7-5 5.2-7.6-3.8-3.3-7.2-1.7zM146.5 75.5c-2.5.7-3 4-1.2 7.3s5.4 5.3 8 4.6 3-4 1.1-7.3-5.3-5.4-7.9-4.6zM289.6 158.6v6.8h3l-2.6 6.2-6.8-10.7-4.5-.1-6.1 10.7-2.7-6.1 2.7-.2c.1-.8-.3-6.6-.3-6.6l-15.1-.1a31 31 0 00.5 6.7l3.2.2c.7 4.1 7 18.9 6.9 18.9a31.6 31.6 0 006.7.1l6.2-11.2 6.8 11a27 27 0 006.3.2c3-4.6 8.1-19 8.1-19l3-.2a63.5 63.5 0 00-.3-6.7s-14.7-.2-15 .1zM231.4 171.3c0 9.8 5.5 13.8 13.2 13.8 8.6 0 12.4-6.6 12.4-13.7 0-8.5-5.3-13.3-12.5-13.3s-13 3.5-13 13.2zm13.3-4.8c2.5 0 3.5 2.6 3.5 5.2 0 3.3-1.5 4.8-3.5 4.8a4.5 4.5 0 01-4-4.8c0-2.7 1-5.2 4-5.2zM216.1 158c4.6 0 5.6 5.2 5.6 5.2l8.1-1s.6-12.4.3-12.6c-2.2-1.4-8-1.5-8-1.6l-.6 3a9 9 0 00-6-2.1c-7.1 0-14.7 4.7-14.7 17.5 0 12.2 8.6 18.4 16.5 18.4 9.6 0 12.8-7.5 12.8-7.5s-4.3-4-6.6-6.3c-.5.7-3 3.5-6.2 3.5-2.5 0-6.1-2-6.1-8 0-5.7 2.3-8.5 5-8.5z" class="cls-1"/><path d="M181.8 158.6v6.6l2.6.2-3.7 7-3.8-7.2h2.8c.1-1-.2-6.8-.2-6.8h-15.2c-.3 1.7.5 6.7.5 6.7l2.8.1c.8 4.1 7.9 15.8 7.9 15.8.2 0-7.5 11.8-7.2 11.8 1.6 2.8 8.7 4.3 8.7 4.3 3.1-4.6 16.9-31.7 16.9-31.7l2.8-.1a58.9 58.9 0 00-.4-6.5s-14.3-.5-14.5-.2zM120.6 184.8c5.2 0 11.3-2.5 11.3-13s-6.9-13.6-11.6-13.6c-5 0-6.6 2.3-6.6 2.3l-1-2.3c-.3-.2-11.5 1.6-11.5 1.6s.3 4.3.4 7.5h3.7v21.2l-3.8.3.2 6.9h18.4s0-6.6-.2-6.9-5.2-.7-5.2-.7v-5s1.6 1.7 6 1.7zm-1.1-18.3c2 0 3.3 1.7 3.3 5.1s-1 5.3-3.5 5.3c-2 0-3.4-2.3-3.4-5.4s1.4-5 3.6-5zM152.9 184.8c5.1 0 11.3-2.5 11.3-13s-7-13.6-11.6-13.6c-5.2 0-6.6 2.3-6.6 2.3l-1.1-2.3c-.1-.2-11.5 1.6-11.5 1.6s.4 4.3.4 7.5h3.7v21.2l-3.8.3.3 6.9h18.3c-.1 0 0-6.6-.2-6.9s-5.2-.7-5.2-.7v-5s1.7 1.7 6 1.7zm-1.2-18.3c2 0 3.4 1.7 3.4 5.1s-1.1 5.3-3.6 5.3c-2 0-3.3-2.3-3.3-5.4s1.4-5 3.5-5zM99 165.2l-.3-6.7c0-.2-10.7 0-10.7 0v2.6a13.2 13.2 0 00-7.5-2.5c-5.2 0-11.4 2.8-11.4 12.4 0 10.5 6.6 13.6 11.3 13.6 5.1 0 7.1-3.4 7.1-3.4l.6 2.6 11.4.4.2-7.1c0-.3-4.3-.3-4.3-.3s-.3-10.6-.1-10.7l3.7-.9zM82.2 176c-2 0-4-1.9-4-4.8s1.6-4.8 4.2-4.8c2 0 3.7 2.2 3.7 4.9s-1.7 4.7-3.9 4.7zM48 148.9l-14.7-.3s-.4 7.2-.2 7.4 3.2.2 3.2.2L37 177a24.1 24.1 0 00-3.7.5c-.1.2.2 6.2.2 6.2s15.5.4 15.8.3-.5-6.5-.5-6.8-3.2-.2-3.4-.2-.2-7.4-.2-7.4l10.3.3.2 6.7-3.6.4.2 7.4 15.7-.1V177l-3.5-.4-.6-20 3.7-.6.3-7-16.7-.1.5 7 3 .2.1 6.3-9.8-.5-.3-5.6 3.6-.3z" class="cls-10"/></svg>