<svg aria-hidden="true" xmlns="http://www.w3.org/2000/svg" viewBox="0 0 350 200"><defs><linearGradient id="linear-gradient" x1="256.2" x2="143.3" y1="669.1" y2="503.6" gradientTransform="matrix(1 0 0 -1 0 672)" gradientUnits="userSpaceOnUse"><stop offset="0" stop-color="#7e3589"/><stop offset=".3" stop-color="#7e3589"/><stop offset="1" stop-color="#5e2871"/></linearGradient><linearGradient id="linear-gradient-2" x1="136.6" x2="154.4" y1="581.1" y2="491.1" gradientTransform="matrix(1 0 0 -1 0 672)" gradientUnits="userSpaceOnUse"><stop offset="0" stop-color="#bc1f65"/><stop offset="1" stop-color="#7e1643"/></linearGradient><style>.cls-1{fill:#fff}</style></defs><g id="Layer_2" data-name="Layer 2"><g id="Layer_1-2" data-name="Layer 1-2"><path d="M105 30h140v140H105z" class="cls-1" transform="rotate(-45 175 100)"/><path fill="url(#linear-gradient)" d="M175.3 191.8c.5-.5.5-.5 0 0l91.6-91.5-91.6-91.7z"/><path fill="url(#linear-gradient-2)" d="M83.6 100.2l91.6 91.6.1-183.2-91.7 91.6z"/><path d="M212.6 121.3a4.3 4.3 0 004.2 4.3 4.2 4.2 0 003-1.2 4.3 4.3 0 000-6 4.3 4.3 0 00-7.2 3M201.3 121.3a4.1 4.1 0 001.2 3 4 4 0 003 1.3 4.1 4.1 0 003-1.3 4.3 4.3 0 000-6 4.2 4.2 0 00-3-1 4.3 4.3 0 00-4.2 4.1M190 121.3a4.2 4.2 0 004.2 4.3 4.2 4.2 0 003-1.2 4.4 4.4 0 000-6 4.3 4.3 0 00-3-1.1 4.2 4.2 0 00-3 1.2 4 4 0 00-1.2 3M178.8 121.3a4.2 4.2 0 004.2 4.3 4.2 4.2 0 004.3-4v-.2a4.2 4.2 0 00-1.2-3 4.3 4.3 0 00-3-1.2 4.2 4.2 0 00-4.3 4.2M208.4 89h-9.7v22h4.7V102h.9a8.7 8.7 0 012.3.2 3.7 3.7 0 011.4 1 27.1 27.1 0 012.5 3.2l3.3 4.8h5.7l-2.8-4.2a26.9 26.9 0 00-2.7-3.8 13.2 13.2 0 00-2.5-1.8 7.4 7.4 0 004.5-2 5.7 5.7 0 001.5-4.2 6 6 0 00-1-3.3 5.2 5.2 0 00-2.7-2 16.5 16.5 0 00-5.4-.8m-5 9.4v-5.8h3.6a27.2 27.2 0 013.4 0 3.1 3.1 0 011.7.9 3 3 0 01.2 3.5 2.3 2.3 0 01-1.3.9 17.1 17.1 0 01-4.2.3zM194.3 92.7v-3.8h-17.1v22.2h17.5v-3.7h-12.8v-6.1h11.5v-3.7h-11.5v-4.9h12.4zM159.6 94.2a5.3 5.3 0 014.1-1.8 5 5 0 013.2 1 4.7 4.7 0 011.7 2.8l4.6-1a8.2 8.2 0 00-2.4-4 9.7 9.7 0 00-6.9-2.6 10.3 10.3 0 00-7.7 3.2 11.8 11.8 0 00-3 8.5 11.4 11.4 0 003 8.2 10.2 10.2 0 007.5 3.2 9 9 0 009.5-7.2l-4.5-1.3a6.2 6.2 0 01-2 3.4 4.9 4.9 0 01-3.1 1 5.3 5.3 0 01-4-1.6 9 9 0 01-1.6-6 8.5 8.5 0 011.6-5.7M135.4 88.9h-4.5v22.2h4.3V96.7l9.3 14.4h4.6V88.9h-4.3v14.8l-9.4-14.8z" class="cls-1"/></g></g></svg>