<svg aria-hidden="true" xmlns="http://www.w3.org/2000/svg" viewBox="0 0 350 200" fill="#552773"><path d="M115.6 121.5l-2.1-10.4c-1.1-5.5-5.4-5-5.4-5l-36.9-1.7s23-7.7 27.6-9 3.8-4.8 3.8-4.8l-1.8-10.8c-.8-4.2-5.5-4.4-5.5-4.4l-18.6-2 7.6-2.5c5.2-1.6 4.2-6.2 4.2-6.2L86.5 51l-6.1-1.6-3.8 3.2.9 4.5s-22.6 7.8-26 8.8a4.7 4.7 0 00-3.6 4l-.2 12.8c0 4.2 5.3 4.1 5.3 4.1L71.6 88 40.1 98.6a5.4 5.4 0 00-3.3 3l-.6 13c-.1 4.4 5.3 4.6 5.3 4.6h32L25.7 130c-2.2.5-1.9 2-1.9 2l.9 13.7c0 2 1 2.1 1 2.1l46.7 7L72 172h15.1l.1-7.1a10 10 0 00-2.4-6.8c-2.5-2.8-6.4-7.3-10-11.1a39.6 39.6 0 00-13.1-9.2l48-10.3c7.1-1.5 5.9-6 5.9-6z"/><path d="M72.9 17.6l8.3 10.2 13.2-1.1-7.1 11.1L92.4 50l-12.8-3.4-10 8.7L69 42l-11.3-6.8 12.3-4.8 3-12.9zM172 42.8c0 7.5-4 15-14.2 15h-12.7v18h-6.4v-48h19.1c10.2 0 14.3 7.5 14.3 15zm-6.3 0c0-4.5-2.3-9.2-8-9.2h-12.6v18.2h12.3c6 0 8.3-4.5 8.3-9zM206.7 43.2v32.5h-6.1v-5.1c-2.2 3.7-6.9 5.8-11.6 5.8-8.9 0-16.2-6.7-16.2-17S180 42.5 189 42.5c4.9 0 9.5 2 11.6 5.8v-5zm-6.1 16.2a11 11 0 00-11-11.2c-6 0-10.7 4.6-10.7 11.2s4.7 11.3 10.6 11.3a11 11 0 0011.1-11.3zM234.1 43.8l-1 5.7a11.3 11.3 0 00-4.7-1.1c-6.5 0-9 6.9-9 15.4v12h-6.2V43.1h6.2v7.4c1.6-5.7 4.8-8 9-8a12 12 0 015.7 1.2zM258.6 75.7l-15-15.8v15.8h-6V25.5h6v29.2L255 43.2h8.4l-14 14 17.4 18.5zM135 108.8a16 16 0 0116-16.1 15.3 15.3 0 0111.8 5.3l-3 2.5a11.6 11.6 0 00-8.8-4 12.3 12.3 0 000 24.5 11.6 11.6 0 008.8-4l3 2.5a15.3 15.3 0 01-11.8 5.4 16 16 0 01-16-16.1zM185.4 112v12.4h-4v-12c0-3.6-2.1-5.8-5.1-5.8s-6.5 1.6-6.5 6.3v11.5h-4v-33h4v15c1.2-2.7 4.7-3.8 7-3.8 5.4 0 8.7 3.5 8.6 9.5zM204 103.5l-.6 3.7a7.4 7.4 0 00-3.1-.7c-4.3 0-6 4.5-6 10.1v7.8h-4v-21.3h4v4.8c1.1-3.7 3.2-5.3 6-5.3a8.2 8.2 0 013.7.9zM205.7 95.3a2.8 2.8 0 112.7 2.6 2.7 2.7 0 01-2.7-2.6zm.8 7.8h4v21.3h-4zM214 118h3.7c0 1.9 1.6 3.4 4.2 3.4s4.3-1.2 4.3-3-1.2-2.4-2.9-2.8l-2.9-.6c-3.6-1-5.6-2.7-5.6-6.1s3-6.2 7.3-6.2c3.6 0 7.3 1.9 7.3 6.2h-3.8c0-1.7-1.7-2.8-3.4-2.8-2 0-3.4 1.3-3.4 3 0 1.4 1.3 2.2 2.7 2.5l3.1.8c4.5 1 5.6 3.7 5.6 6.1 0 4-3.8 6.4-8.2 6.4-3.9 0-7.8-2.5-8-6.8zM244.2 106.5h-4.6v17.9h-4v-17.9h-3.8v-3.4h3.8V95h4v8h4.6zM280.4 112v12.4h-4v-12c0-3.6-2-6-5-6-3.8 0-6.1 3.2-5.7 7.3v-.2 11h-4v-12.2c0-3.6-2-5.8-4.8-5.8-3 0-6 1.9-6 6.4v11.5h-4v-21.3h4v3.3c1-2.3 3.8-3.7 6.8-3.7a7.4 7.4 0 017 4.4 7.9 7.9 0 017.4-4.4c5.4 0 8.3 3.4 8.3 9.4zM306.2 103.1v21.3h-4V121c-1.4 2.5-4.5 3.8-7.5 3.8-5.9 0-10.7-4.4-10.7-11.1s4.8-11 10.6-11c3.2 0 6.2 1.2 7.6 3.7v-3.3zm-4 10.6a7.2 7.2 0 00-7.2-7.3 7 7 0 00-7 7.3 7.1 7.1 0 1014.2 0zM310 118h3.6c0 1.9 1.6 3.4 4.3 3.4s4.2-1.2 4.2-3-1.2-2.4-2.9-2.8l-2.9-.6c-3.6-1-5.6-2.7-5.6-6.1s3-6.2 7.3-6.2c3.6 0 7.3 1.9 7.3 6.2h-3.8c0-1.7-1.7-2.8-3.4-2.8-2 0-3.4 1.3-3.4 3 0 1.4 1.3 2.2 2.7 2.5l3.1.8c4.5 1 5.6 3.7 5.6 6.1 0 4-3.8 6.4-8.3 6.4-3.8 0-7.7-2.5-7.9-6.8zM135.1 162.8h4.1c.2 2.8 2.8 5.6 7 5.6s6.4-2.6 6.4-5.3c0-3.1-2.8-4.5-5.5-5.2l-4-1c-6.7-1.6-7.7-5.5-7.7-8 0-5.5 4.8-9 10.3-9s10 3.6 10 9.2h-4.1c0-3.1-2.6-5.3-6-5.3-3.2 0-6.1 2-6.1 5 0 1.1.4 3.4 4.6 4.4l4 1c5.4 1.3 8.6 4.2 8.6 8.7 0 4.9-4 9.3-10.5 9.3s-11-4.5-11-9.4zM181.8 150.5v21.3h-4v-3.4c-1.5 2.5-4.6 3.8-7.6 3.8-5.8 0-10.7-4.4-10.7-11.1s4.8-11.1 10.7-11.1c3.2 0 6.2 1.3 7.6 3.8v-3.4zm-4 10.6a7.2 7.2 0 00-7.3-7.3 7 7 0 00-7 7.2 7.1 7.1 0 1014.2 0zM206 150.5l-8.9 21.3h-3.9l-8.8-21.3h4.2l6.6 16.2 6.5-16.2zM207.7 142.6a2.8 2.8 0 112.8 2.7 2.7 2.7 0 01-2.8-2.7zm.8 7.9h4v21.3h-4zM237.3 159.4v12.4h-4v-12.1c0-3.6-2.2-5.8-5.2-5.8s-6.5 1.7-6.5 6.3v11.6h-4v-21.3h4v3.2c1.2-2.6 4.7-3.7 7-3.7 5.4 0 8.7 3.5 8.7 9.4zM263 150.5v18c0 10.1-4.6 13.9-11.6 13.9a10.8 10.8 0 01-9.6-5.7l3.4-1.8a7.1 7.1 0 006.2 3.7c4.7 0 7.6-2.6 7.6-9.8v-.4c-1.4 2.5-4.5 3.8-7.5 3.8-5.9 0-10.7-4.4-10.7-11.1s4.7-11.1 10.6-11.1c3.2 0 6.2 1.3 7.6 3.8v-3.3zm-4 10.6a7.2 7.2 0 00-7.3-7.3 7 7 0 00-7 7.2 7.1 7.1 0 1014.3 0zM266.6 165.4h3.7c0 1.8 1.7 3.3 4.3 3.3s4.3-1.2 4.3-3-1.3-2.4-3-2.7l-2.9-.7c-3.5-1-5.6-2.7-5.6-6.1s3-6.2 7.3-6.2c3.6 0 7.3 1.9 7.3 6.2h-3.8c0-1.7-1.7-2.8-3.4-2.8-2 0-3.4 1.3-3.4 2.9 0 1.5 1.3 2.2 2.7 2.6l3.2.7c4.4 1.1 5.5 3.8 5.5 6.2 0 4-3.8 6.4-8.2 6.4-3.9 0-7.8-2.4-8-6.8z"/></svg>