<svg aria-hidden="true" xmlns="http://www.w3.org/2000/svg" viewBox="0 0 350 200" fill="#552773"><path d="M109 124.6l-2.4-12c-1.4-6.3-6.2-5.6-6.2-5.6l-42.2-2s26.3-8.8 31.6-10.2 4.4-5.4 4.4-5.4S93 81.8 92 76.9s-6.3-5-6.3-5l-21.3-2.3s2.7-1 8.7-2.8 4.8-7 4.8-7l-2.5-16-7-2-4.3 3.8 1 5.1s-25.8 9-29.7 10.2a5.4 5.4 0 00-4.1 4.5L31 80c0 4.8 6.2 4.7 6.2 4.7l21.3 1.4-36 12.2a6.2 6.2 0 00-3.9 3.5s-.5 9.8-.6 14.8 6 5.3 6 5.3l36.6.1-54.5 12.2c-2.5.6-2.2 2.3-2.2 2.3l1 15.7c.1 2.3 1 2.4 1 2.4l53.6 8-.5 19.7h17.3l.1-8.2a11.5 11.5 0 00-2.8-7.7l-11.4-12.8a45.3 45.3 0 00-15-10.4l55-12c8-1.7 6.7-6.7 6.7-6.7z"/><path d="M60 5.7l9.7 11.6 15-1.3-8.1 12.8 5.9 14-14.7-3.9-11.4 9.9-.9-15-13-7.9 14.1-5.5 3.5-14.7zM169.6 34.4c0 8.7-4.7 17.2-16.3 17.2h-14.6v20.6h-7.3V17.3h21.9c11.6 0 16.3 8.6 16.3 17.1zm-7.3 0c0-5-2.6-10.4-9.1-10.4h-14.5v20.8h14c7 0 9.7-5.1 9.7-10.4zM209.2 35v37.2h-7v-5.9c-2.4 4.3-7.8 6.7-13.1 6.7-10.2 0-18.7-7.7-18.7-19.4s8.4-19.4 18.6-19.4c5.6 0 10.8 2.2 13.3 6.6V35h7zm-7 18.5a12.6 12.6 0 00-12.6-12.8c-6.7 0-12.2 5.3-12.2 12.8s5.4 13 12.2 13a12.5 12.5 0 0012.7-13zM240.6 35.6l-1 6.6a13 13 0 00-5.5-1.3c-7.4 0-10.3 7.9-10.3 17.7v13.6h-7V35h7v8.4c1.9-6.5 5.5-9.2 10.4-9.2a13.8 13.8 0 016.4 1.4zM268.7 72.2L251.6 54v18.2h-7V14.7h7v33.5L264.5 35h9.6l-16 16L278 72.3zM127.2 110a18.3 18.3 0 0118.2-18.4 17.5 17.5 0 0113.6 6.1l-3.4 3a13.3 13.3 0 00-10.2-4.7 14 14 0 000 28.1 13.3 13.3 0 0010.1-4.7l3.5 3a17.5 17.5 0 01-13.6 6 18.3 18.3 0 01-18.3-18.4zM185 113.8V128h-4.6v-13.9c0-4-2.5-6.6-6-6.6s-7.4 2-7.4 7.2V128h-4.5V90.2h4.5v17c1.5-3 5.4-4.2 8-4.2 6.2 0 10 4 10 10.8zM206.2 104l-.7 4.3a8.4 8.4 0 00-3.6-.9c-4.8 0-6.8 5.2-6.8 11.6v9h-4.6v-24.5h4.6v5.6c1.3-4.3 3.6-6 6.9-6a9.2 9.2 0 014.2.9zM208 94.6a3.2 3.2 0 113.3 3 3 3 0 01-3.2-3zm1 9h4.6V128H209zM217.7 120.7h4.2c0 2 1.9 3.8 4.8 3.8s5-1.4 5-3.4c0-1.8-1.5-2.8-3.4-3.2l-3.4-.8c-4-1-6.4-3-6.4-7s3.5-7 8.4-7c4.1 0 8.4 2.1 8.4 7h-4.4c0-1.8-2-3.1-4-3.1-2.3 0-3.8 1.4-3.8 3.3 0 1.7 1.5 2.5 3.1 2.9l3.6.9c5 1.2 6.4 4.3 6.4 7 0 4.5-4.4 7.3-9.5 7.3-4.3 0-8.8-2.7-9-7.7zM252.2 107.5H247V128h-4.5v-20.5H238v-4h4.4v-9.2h4.6v9.3h5.3zM293.7 113.8V128H289v-13.9c0-4-2.2-6.7-5.8-6.7-4.3 0-7 3.6-6.5 8.3v-.2V128h-4.6v-13.9c0-4.1-2.2-6.7-5.5-6.7-3.4 0-6.9 2.2-6.9 7.3V128h-4.5v-24.4h4.5v3.7c1.3-2.6 4.4-4.3 7.9-4.3a8.5 8.5 0 018 5.1 9 9 0 018.5-5c6.2-.1 9.5 3.9 9.5 10.7zM323.3 103.5V128h-4.6v-3.8c-1.6 2.8-5.2 4.4-8.7 4.4-6.6 0-12.2-5.1-12.2-12.8S303.3 103 310 103c3.6 0 7.1 1.5 8.7 4.3v-3.8zm-4.6 12.2a8.3 8.3 0 00-8.3-8.4 8 8 0 00-8 8.4c0 4.8 3.6 8.5 8 8.5a8.2 8.2 0 008.3-8.5zM327.5 120.7h4.2c0 2 1.9 3.8 4.9 3.8s4.9-1.4 4.9-3.4c0-1.8-1.4-2.8-3.4-3.2l-3.3-.8c-4.1-1-6.4-3-6.4-7s3.4-7 8.3-7c4.1 0 8.4 2.1 8.4 7h-4.4c0-1.8-2-3.1-3.9-3.1-2.3 0-4 1.4-4 3.3 0 1.7 1.7 2.5 3.2 2.9l3.6.9c5 1.2 6.4 4.3 6.4 7 0 4.5-4.4 7.3-9.4 7.3-4.4 0-9-2.7-9.1-7.7zM127.3 171.9h4.7c.1 3.2 3.2 6.4 8 6.4s7.3-3 7.3-6c0-3.6-3.2-5.2-6.3-6l-4.6-1.1c-7.6-1.8-8.8-6.3-8.8-9.2 0-6.3 5.5-10.2 11.8-10.2s11.4 4 11.4 10.4h-4.7c0-3.6-3-6-6.8-6-3.6 0-7 2.2-7 5.7 0 1.3.5 3.9 5.3 5l4.6 1.2c6.2 1.5 9.8 4.8 9.8 10 0 5.6-4.5 10.6-12 10.6s-12.6-5.2-12.7-10.8zM180.7 157.8v24.4h-4.5v-3.9c-1.6 2.8-5.2 4.4-8.7 4.4-6.7 0-12.2-5-12.2-12.7s5.4-12.7 12.1-12.7c3.7 0 7.1 1.4 8.8 4.3v-3.8zm-4.5 12.1a8.3 8.3 0 00-8.3-8.4 8 8 0 00-8 8.4c0 4.9 3.5 8.5 8 8.5a8.2 8.2 0 008.3-8.5zM208.4 157.8l-10.2 24.4h-4.4l-10.1-24.4h4.8l7.6 18.6 7.4-18.6zM210.4 148.8a3.2 3.2 0 113.2 3 3 3 0 01-3.2-3zm1 9h4.5v24.4h-4.5zM244.3 168v14.2h-4.6v-13.8c0-4.1-2.5-6.6-5.9-6.6s-7.5 1.9-7.5 7.2v13.2h-4.5v-24.4h4.5v3.7c1.5-3 5.5-4.2 8.1-4.2 6 0 9.9 4 9.8 10.8zM273.7 157.8v20.7c0 11.5-5.2 15.8-13.3 15.8a12.4 12.4 0 01-11-6.5l3.9-2a8.2 8.2 0 007.1 4.3c5.4 0 8.7-3 8.7-11.3v-.5c-1.6 2.9-5.1 4.4-8.6 4.4-6.7 0-12.3-5-12.3-12.7s5.5-12.7 12.2-12.7c3.7 0 7 1.5 8.7 4.3v-3.8h4.6zm-4.5 12.1a8.3 8.3 0 00-8.4-8.4 8 8 0 00-8 8.4c0 4.9 3.6 8.5 8 8.5a8.2 8.2 0 008.3-8.5zM277.9 175h4.2c0 2 2 3.7 4.9 3.7s4.9-1.4 4.9-3.4-1.4-2.7-3.3-3.2l-3.4-.7c-4-1.1-6.4-3.1-6.4-7s3.4-7.1 8.3-7.1c4.2 0 8.5 2.2 8.5 7h-4.4c0-1.8-2-3-4-3-2.3 0-3.9 1.3-3.9 3.2 0 1.7 1.6 2.6 3.2 3l3.6.8c5 1.3 6.3 4.3 6.3 7 0 4.6-4.3 7.3-9.4 7.3-4.4.1-8.9-2.7-9.1-7.7z"/></svg>