<svg aria-hidden="true" xmlns="http://www.w3.org/2000/svg" viewBox="0 0 350 200"><defs><style>.cls-1{fill:#a90100}.cls-2{fill:#fff}.cls-3{fill:none;stroke:#a11d21;stroke-width:.5px}</style></defs><circle cx="175.4" cy="67" r="64" class="cls-1"/><path d="M143 92.8q7.2 6.5 18.7 8.4t20.4-2q8.9-3.8 10-11t-6-13.8q-7.2-6.5-18.7-8.3T147 68q-9 3.8-10.1 11.1t6 13.7zm8-4c-3-2.9-4.3-5.8-3.8-9s2.7-5.5 6.5-7.1a26.1 26.1 0 0125.3 4.1c3.1 2.8 4.4 5.8 4 8.9s-2.8 5.5-6.6 7.1a26 26 0 01-25.3-4z" class="cls-2"/><path d="M143 92.8q7.2 6.5 18.7 8.4t20.4-2q8.9-3.8 10-11t-6-13.8q-7.2-6.5-18.7-8.3T147 68q-9 3.8-10.1 11.1t6 13.7zm8-4c-3-2.9-4.3-5.8-3.8-9s2.7-5.5 6.5-7.1a26.1 26.1 0 0125.3 4.1c3.1 2.8 4.4 5.8 4 8.9s-2.8 5.5-6.6 7.1a26 26 0 01-25.3-4z" class="cls-3"/><path d="M207.2 67q-1-8-12-12.5T169 51.8q-14.9 1.7-24.7 8.5t-9 14.9q.8 8 12 12.5t26.1 2.7q14.9-1.7 24.8-8.6t9-14.8zm-20.6-8.2c5 1.9 7.7 4.5 8 8s-1.6 6.4-6 9.4-10 4.8-16.7 5.6-12.6.2-17.5-1.7-7.7-4.5-8.1-7.9 1.6-6.5 6-9.5 10-4.8 16.7-5.5 12.6-.3 17.6 1.6z" class="cls-2"/><path d="M207.2 67q-1-8-12-12.5T169 51.8q-14.9 1.7-24.7 8.5t-9 14.9q.8 8 12 12.5t26.1 2.7q14.9-1.7 24.8-8.6t9-14.8zm-20.6-8.2c5 1.9 7.7 4.5 8 8s-1.6 6.4-6 9.4-10 4.8-16.7 5.6-12.6.2-17.5-1.7-7.7-4.5-8.1-7.9 1.6-6.5 6-9.5 10-4.8 16.7-5.5 12.6-.3 17.6 1.6z" class="cls-3"/><path d="M217.5 43.6q-1.9-5.4-15.6-4.7t-31.1 7q-17.4 6.3-28 14.5t-9.2 13.5c1 3.5 6 5 15.2 4.6s19.5-2.8 31.1-7 21.2-9 28.5-14.5 10.4-10 9-13.4zm-21.2 12.8a73.5 73.5 0 01-18.7 9.1A76 76 0 01157 70q-9 .4-10.2-3t6-8.5a72.3 72.3 0 0118.7-9.1 73.2 73.2 0 0120.4-4.5c6-.3 9.4.7 10.3 3s-1.2 5-6 8.4z" class="cls-2"/><path d="M217.5 43.6q-1.9-5.4-15.6-4.7t-31.1 7q-17.4 6.3-28 14.5t-9.2 13.5c1 3.5 6 5 15.2 4.6s19.5-2.8 31.1-7 21.2-9 28.5-14.5 10.4-10 9-13.4zm-21.2 12.8a73.5 73.5 0 01-18.7 9.1A76 76 0 01157 70q-9 .4-10.2-3t6-8.5a72.3 72.3 0 0118.7-9.1 73.2 73.2 0 0120.4-4.5c6-.3 9.4.7 10.3 3s-1.2 5-6 8.4z" class="cls-3"/><path d="M36.8 155.2q0 7-4.4 10.7T20 169.6H16v15.5H6.7v-43.5h14q7.9 0 12 3.4t4.1 10.2zM16 162h3q4.3 0 6.4-1.7a5.9 5.9 0 002-4.9 6 6 0 00-1.7-4.8q-1.8-1.6-5.5-1.6H16zM58.8 185.7q-8 0-12.6-4.4t-4.5-12.6q0-8.3 4.2-13t11.5-4.5q7.1 0 11 4t4 11.1v4.4H50.9a8.7 8.7 0 002.3 6 8 8 0 006 2.2 24.8 24.8 0 005.7-.6 28.3 28.3 0 005.6-2v7a21.3 21.3 0 01-5.1 1.8 32.7 32.7 0 01-6.6.6zm-1.3-28a5.8 5.8 0 00-4.5 1.8 8.4 8.4 0 00-1.9 5.2H64a7.6 7.6 0 00-1.8-5.2 6 6 0 00-4.6-1.8zM97.7 151.2a15.4 15.4 0 013.1.3l-.7 8.5a10.4 10.4 0 00-2.7-.3 9.6 9.6 0 00-6.8 2.2 8 8 0 00-2.4 6.3v17h-9v-33.4H86l1.3 5.6h.5A12.5 12.5 0 0192 153a10.3 10.3 0 015.7-1.7zM129.5 175.2a9.2 9.2 0 01-3.6 7.9q-3.6 2.6-10.6 2.6a34.1 34.1 0 01-6.2-.5 23.2 23.2 0 01-4.8-1.4v-7.5a31.4 31.4 0 005.7 2 22.9 22.9 0 005.5.8q5 0 5-2.9a2.4 2.4 0 00-.6-1.7 9.7 9.7 0 00-2.3-1.5q-1.6-.9-4.3-2a26.5 26.5 0 01-5.6-3 8.3 8.3 0 01-2.6-3.2 10.3 10.3 0 01-.8-4.3 7.9 7.9 0 013.4-6.9q3.4-2.4 9.7-2.4a27.7 27.7 0 0111.8 2.6l-2.8 6.6q-2.5-1.1-4.7-1.8a14.9 14.9 0 00-4.4-.7q-4 0-4 2.2a2.5 2.5 0 001.3 2.1 35.3 35.3 0 005.7 2.7 26 26 0 015.7 3 8.6 8.6 0 012.6 3.1 9.6 9.6 0 01.9 4.2zM154.2 185.7a11 11 0 01-9.2-4.2h-.4l.4 4.8v13.5h-9v-48h7.3l1.3 4.3h.4a10.5 10.5 0 019.4-5 10.8 10.8 0 019.3 4.6q3.3 4.6 3.3 12.7a25.1 25.1 0 01-1.6 9.2 13 13 0 01-4.4 6 11.4 11.4 0 01-6.8 2.1zm-2.6-27.2a5.7 5.7 0 00-5 2c-1 1.4-1.5 3.7-1.6 6.9v1q0 5.3 1.6 7.7a5.7 5.7 0 005 2.3q6.1 0 6.1-10c0-3.4-.5-5.8-1.5-7.5a5.1 5.1 0 00-4.6-2.4zM189 185.7q-8 0-12.6-4.4t-4.5-12.6q0-8.3 4.2-13t11.6-4.5q7 0 11 4t3.9 11.1v4.4H181a8.7 8.7 0 002.3 6 8 8 0 006 2.2 24.7 24.7 0 005.7-.6 28 28 0 005.6-2v7a21.2 21.2 0 01-5 1.8 32.6 32.6 0 01-6.7.6zm-1.3-28a5.8 5.8 0 00-4.5 1.8 8.5 8.5 0 00-1.9 5.2h12.8a7.5 7.5 0 00-1.8-5.2 6 6 0 00-4.6-1.8zM222.9 185.7q-15.6 0-15.6-17 0-8.5 4.3-13t12-4.5a23.1 23.1 0 0110.5 2.2l-2.7 7-4-1.4a13.1 13.1 0 00-3.7-.5q-7 0-7.1 10 0 9.8 7 9.8a16 16 0 005-.7 17.5 17.5 0 004.4-2.2v7.8a14.5 14.5 0 01-4.4 2 24.9 24.9 0 01-5.7.5zM254.2 178.5a19.9 19.9 0 005.7-1v6.8a20.5 20.5 0 01-8.4 1.5c-3.6 0-6.2-1-8-2.8s-2.4-4.6-2.4-8.2v-16.2h-4.3v-3.8l5-3 2.6-7h5.8v7.1h9.3v6.8h-9.3v16a3.6 3.6 0 001 3 4.3 4.3 0 003 .8zM265.6 143.2q0-4.4 5-4.4t4.9 4.4a4.3 4.3 0 01-1.2 3.3 5.2 5.2 0 01-3.8 1.2q-4.9 0-4.9-4.5zm9.5 42H266v-33.4h9zM292 185.1l-12.8-33.3h9.5l6.5 19a32.8 32.8 0 011.3 6.8h.2a29.9 29.9 0 011.3-6.8l6.4-19h9.5l-12.7 33.3zM333.2 185.7q-8.1 0-12.6-4.4t-4.5-12.6q0-8.3 4.1-13t11.6-4.5q7 0 11 4t4 11.1v4.4h-21.5a8.7 8.7 0 002.3 6 8 8 0 006 2.2 24.8 24.8 0 005.6-.6 28 28 0 005.7-2v7a21.3 21.3 0 01-5.1 1.8 32.6 32.6 0 01-6.6.6zm-1.3-28a5.8 5.8 0 00-4.5 1.8 8.4 8.4 0 00-2 5.2h12.8a7.6 7.6 0 00-1.7-5.2 6 6 0 00-4.6-1.8z" class="cls-1"/></svg>