<svg aria-hidden="true" focussable="false" xmlns="http://www.w3.org/2000/svg" viewBox="0 0 75 75" fill="currentColor"><g id="people"><path id="person-left" d="M40.2 30.26a9.49 9.49 0 00-5.3-5.84l-.7-.28.53-.53a4.51 4.51 0 10-6.48-.07l.52.54-.7.27a9 9 0 00-5.33 6 11 11 0 015.53 8.88 5.57 5.57 0 013.11-1.1 6.31 6.31 0 013.41 1.52 10.71 10.71 0 015.41-9.39z" /><path id="person-mid" d="M22.49 31.32c-.15-.09-.3-.16-.46-.24l-.47-.24-.15-.07-.69-.28.52-.54a4.43 4.43 0 001.31-3.16 4.52 4.52 0 10-9 0 4.48 4.48 0 001.25 3.09l.51.55-.7.26c-3.61 1.39-5.85 5-5.85 9.47A12.43 12.43 0 0011 46.79a1.24 1.24 0 00.76.58c.5.08 1.21-.47 2-1a7 7 0 014.18-1.88 6.79 6.79 0 013.63 1.67c1.6 1.17 2.38 1.6 3.07.9a10.23 10.23 0 002.68-5.84 4.87 4.87 0 000-.66 2.45 2.45 0 000-.27v-.35a10.12 10.12 0 00-4.83-8.62z" /><path id="person-right" d="M48.43 30.77l-.69-.28.53-.54a4.46 4.46 0 001.3-3.16 4.52 4.52 0 10-7.78 3.09l.51.55-.69.26a1.63 1.63 0 01-.19.09L41 31l-.47.23c-3 1.66-4.74 5-4.74 8.93v.76c0 .21.06.42.09.63A12.91 12.91 0 0038 46.79a1.23 1.23 0 00.75.58c.51.08 1.21-.47 2-1a7 7 0 014.18-1.88 6.79 6.79 0 013.63 1.67c1.6 1.17 2.38 1.6 3.07.9a10.18 10.18 0 002.74-6.77 10 10 0 00-5.94-9.52z" /></g><path id="zoom" d="M65.81 61.06A181.16 181.16 0 0052.18 48a27.58 27.58 0 10-4.44 4.52L61 65l7.62 6.52 3.55-3.33c-1.99-2.36-4.1-4.74-6.36-7.13zm-58.1-30A22.72 22.72 0 1130.43 53.8 22.74 22.74 0 017.71 31.09z" /></svg>