<svg aria-hidden="true" focussable="false" xmlns="http://www.w3.org/2000/svg" viewBox="0 0 75 75" fill="currentColor"><path d="M37.76 19.9A17.14 17.14 0 0020.64 37a18.25 18.25 0 00.75 5c.05.2.15.53.29.94.81 2.41 2.65 4.16 4.42 5.84a21 21 0 012.8 3 6.89 6.89 0 01.94 1.93 6.28 6.28 0 01.26 1.35v4.44h15.46v-4.63a3.6 3.6 0 01.13-1.32 4 4 0 011.05-1.67l.56-.55c1.88-1.82 5.79-5.61 6.85-9.33a18.67 18.67 0 00.74-5 17.14 17.14 0 00-17.13-17.1zM44.25 62.18h-14.1l.34 5.05H45.12l.08-.56c.11-.82.2-1.69.26-2.6 0-.67.07-1.3.08-1.93zm-12.72 1.29l.16 2.47z" /><path d="M65.71 27.23l-5.52 1.58-2.19.76.67 2.48 2.38-.52L66.5 30zM9.44 27.05l5.43 1.87 2.1.87-.8 2.45-2.35-.65-5.32-1.82zM19.77 12.51l3.61 4.94 1.31 2-2.19 1.69-1.66-2-3.54-4.82zM55.66 12.83l-3.61 4.94-1.31 2 2.19 1.65 1.66-2 3.54-4.82zM36.25 7.77l.07 6 .17 2.37h2.68l.13-2.54-.06-5.85z"/></svg>