<svg aria-hidden="true" focussable="false" xmlns="http://www.w3.org/2000/svg" viewBox="0 0 75 75" fill="currentColor"><path d="M35.53 4a33.53 33.53 0 1033.54 33.5A33.57 33.57 0 0035.53 4zm0 62.71A29.18 29.18 0 1164.71 37.5a29.21 29.21 0 01-29.18 29.18z"/><g id="lines"><path d="M2.76 29.9h47.89v1H2.76z" class="cls-2" transform="rotate(-50.31 26.71 30.4)"/><path d="M6.44 34.3H58.1v1H6.44z" class="cls-2" transform="rotate(-50.31 32.26 34.8)"/><path d="M6.16 21.41h22.32v1H6.16z" class="cls-2" transform="rotate(-50.31 17.31 21.9)"/><path d="M16.12 50.46h22.32v1H16.12z" class="cls-2" transform="rotate(-50.31 27.28 50.97)"/><path d="M2 26.19h38.23v1H2z" class="cls-2" transform="rotate(-50.31 21.11 26.7)"/></g><g id="pencil"><path d="M39.77 31.34l19.91-20a7.34 7.34 0 005.83 5.89l-20 20.29a7 7 0 01-4-2.16 6.88 6.88 0 01-1.74-4.02z" class="cls-2"/><path d="M61.08 10.29l2.92-3A6.4 6.4 0 0065.62 11a6.51 6.51 0 004.21 2.05l-3 3.13a7 7 0 01-5.72-5.89zM38.36 33.55l-5 10 10-5a4.94 4.94 0 01-4.1-1.72 4.75 4.75 0 01-.9-3.28zM65.08 6.34l2.16-2.25a2 2 0 011.47 0c.89.35.83.29 2.43 1.89a5.5 5.5 0 011.76 2.78 2 2 0 010 1.05c-.74.71-1.52 1.55-2.26 2.27a8 8 0 01-3.56-2.14 8.44 8.44 0 01-2-3.6z" class="cls-2"/></g></svg>