<svg aria-hidden="true" focussable="false" xmlns="http://www.w3.org/2000/svg" viewBox="0 0 75 75" fill="currentColor"><path id="square" d="M73.06 62.24H2.21V13.09h70.85zM4.5 60h66.27V15.38H4.5z" /><g id="lines"><path d="M1.22 33.22h35.96v.57H1.22z"  transform="rotate(-50.31 19.2 33.5)"/><path d="M15 41.45h36.18v.57H15z"  transform="rotate(-50.31 33.1 41.74)"/><path d="M-.67 37.32h46.69v.69H-.67z"  transform="rotate(-50.31 22.66 37.66)"/><path d="M8.01 32.15l-.43-.35 10.51-12.31.43.35L8.01 32.15z" /><path d="M32.58 49.75h14.77v.5H32.58z"  transform="rotate(-50.31 39.96 50)"/><path d="M5.7 37.33h46.7V38H5.7z"  transform="rotate(-50.31 29.04 37.67)"/><path d="M3.03 29.32h25.8v.51H3.03z"  transform="rotate(-50.31 15.92 29.57)"/><path d="M23.89 45.67h25.38v.5H23.89z"  transform="rotate(-50.2 36.66 45.87)"/></g><path d="M47.8 18.66h19.96V55.8H47.8z" /></svg>