<svg focussable="false" xmlns="http://www.w3.org/2000/svg" width="52" height="52" viewBox="0 0 51 52"><g transform="translate(-0.403 -0.401)"><rect width="51" height="52" rx="25.5" transform="translate(0.403 0.401)" fill="#0d2538"/><path d="M228.554,228.137a3.131,3.131,0,1,1,3.131,3.129A3.13,3.13,0,0,1,228.554,228.137Z" transform="translate(-205.606 -202.01)" fill="#fff"/><path d="M323.368,228.132a3.139,3.139,0,0,1,3.153-3.124h4.595a3.125,3.125,0,1,1,0,6.249h-4.595A3.139,3.139,0,0,1,323.368,228.132Z" transform="translate(-290.779 -202.01)" fill="#fff"/><path d="M107.633,86.166a3.052,3.052,0,0,1-2.923,3.176c-7.27.3-11.709,6-11.493,11.41a3.03,3.03,0,0,1-2.9,3.171,3.147,3.147,0,0,1-3.233-2.976c-.352-8.816,7.01-17.532,17.373-17.7A3.052,3.052,0,0,1,107.633,86.166Z" transform="translate(-78.51 -74.658)" fill="#fff" fill-rule="evenodd"/></g></svg>