<svg focussable="false" xmlns="http://www.w3.org/2000/svg" width="52" height="52" viewBox="0 0 52.004 52.061"><path d="M38.52,18.9l-.019-.008a.08.08,0,0,1-.031-.018.149.149,0,0,1-.038-.126l1.05-6.417L44.4,17.25l-5.119,2.178a.113.113,0,0,1-.045.008h-.02a.141.141,0,0,1-.027-.023A2.33,2.33,0,0,0,38.52,18.9Zm7.139-.391,5.263,5.263c1.093,1.094,1.64,1.64,1.84,2.273a2.559,2.559,0,0,1,.073.284L40.258,21l-.02-.008c-.05-.02-.109-.043-.109-.1s.06-.076.11-.1l.016-.007,5.4-2.286Zm6.961,9.508a9.907,9.907,0,0,1-1.7,1.938L44.99,35.882l-7.674-1.6-.041-.008c-.068-.011-.14-.023-.14-.084a2.316,2.316,0,0,0-.889-1.62.133.133,0,0,1-.014-.125.043.043,0,0,1,0-.019l1.443-8.861.005-.03c.008-.068.02-.147.081-.147a2.349,2.349,0,0,0,1.575-.9c.012-.014.02-.029.037-.037a.178.178,0,0,1,.14.019l13.1,5.542Zm-9,9.234L33.868,47l1.67-10.265,0-.014a.184.184,0,0,1,.008-.039c.014-.033.049-.046.083-.06l.016-.007a2.512,2.512,0,0,0,.944-.7.208.208,0,0,1,.122-.081.123.123,0,0,1,.039,0l6.87,1.412ZM31.8,49.069l-1.1,1.1L18.544,32.6l-.014-.019A.119.119,0,0,1,18.5,32.5a.1.1,0,0,1,.03-.057l.014-.018c.037-.054.068-.109.1-.167l.027-.048,0,0a.194.194,0,0,1,.069-.081.164.164,0,0,1,.1,0L32.311,34.9a.223.223,0,0,1,.1.045A.1.1,0,0,1,32.44,35a2.386,2.386,0,0,0,1.4,1.6c.038.019.022.061,0,.106a.323.323,0,0,0-.02.061C33.65,37.8,32.194,46.673,31.8,49.069Zm-2.3,2.3a5.106,5.106,0,0,1-1.829,1.4,2.716,2.716,0,0,1-1.637,0c-.633-.2-1.18-.747-2.273-1.841l-12.21-12.21,3.189-4.946A.2.2,0,0,1,14.8,33.7a.141.141,0,0,1,.124,0,3.3,3.3,0,0,0,2.224-.113c.037-.014.073-.023.1,0a.258.258,0,0,1,.038.043L29.506,51.366ZM10.379,37.535l-2.8-2.8,5.532-2.36a.114.114,0,0,1,.045-.009c.046,0,.073.046.1.088q.083.128.177.25l.018.022c.016.023.005.046-.011.068L10.38,37.535ZM6.338,33.494,2.794,29.95c-.6-.6-1.04-1.04-1.344-1.416l10.775,2.235.041.007c.067.011.14.023.14.086s-.08.1-.148.125L12.227,31,6.338,33.494ZM.831,26.712a2.716,2.716,0,0,1,.122-.672c.2-.633.747-1.179,1.841-2.273l4.535-4.535q3.133,4.547,6.281,9.08c.036.048.077.1.035.143a3.769,3.769,0,0,0-.536.717.217.217,0,0,1-.068.084.075.075,0,0,1-.057,0h0L.831,26.711Zm7.712-8.694,6.1-6.1c.573.251,2.659,1.132,4.524,1.92,1.412.6,2.7,1.141,3.1,1.317a.15.15,0,0,1,.1.073.139.139,0,0,1,0,.081,2.72,2.72,0,0,0,.71,2.482c.041.041,0,.1-.035.149l-.019.029-6.191,9.59a.188.188,0,0,1-.058.068.157.157,0,0,1-.117,0,3.087,3.087,0,0,0-.737-.1,4.061,4.061,0,0,0-.709.086h0a.091.091,0,0,1-.073-.007.285.285,0,0,1-.061-.069L8.543,18.018Zm7.329-7.329L23.766,2.8c1.093-1.093,1.64-1.64,2.273-1.84a2.716,2.716,0,0,1,1.637,0c.633.2,1.18.747,2.273,1.84L31.66,4.506l-5.614,8.7a.21.21,0,0,1-.056.065.142.142,0,0,1-.122,0,2.847,2.847,0,0,0-2.607.5c-.037.038-.091.016-.137,0-.733-.319-6.436-2.729-7.252-3.075ZM32.853,5.7l5.184,5.184-1.249,7.737v.02a.183.183,0,0,1-.011.052c-.014.027-.041.033-.068.041a2.485,2.485,0,0,0-.744.371.209.209,0,0,0-.027.023.086.086,0,0,1-.054.034.155.155,0,0,1-.058-.01l-7.9-3.356-.015-.007c-.05-.02-.11-.045-.11-.1a2.984,2.984,0,0,0-.421-1.242c-.038-.062-.08-.128-.048-.191ZM27.514,17.383l7.405,3.136c.041.019.086.037.1.079a.144.144,0,0,1,0,.077,1.84,1.84,0,0,0-.041.357v.208c0,.052-.053.073-.1.094l-.015.005c-1.173.5-16.47,7.024-16.493,7.024a.088.088,0,0,1-.071-.023c-.041-.041,0-.1.037-.149l.019-.027,6.086-9.423.011-.016c.035-.057.076-.121.141-.121l.061.01a2.837,2.837,0,0,0,.384.037,2.749,2.749,0,0,0,2.295-1.218.217.217,0,0,1,.046-.054.137.137,0,0,1,.133.005ZM19.033,29.854l16.673-7.111a.073.073,0,0,1,.048.023,2.256,2.256,0,0,0,.243.209l.037.023c.034.019.068.041.071.076a.138.138,0,0,1,0,.034l-1.428,8.774-.005.035c-.01.068-.019.145-.083.145a2.348,2.348,0,0,0-1.864,1.15l-.007.011a.189.189,0,0,1-.068.077.152.152,0,0,1-.1,0l-13.3-2.743c-.014,0-.206-.7-.221-.706Z" transform="translate(-0.831 -0.829)" fill="#0e1e25"/></svg>