<svg focussable="false" xmlns="http://www.w3.org/2000/svg" width="52" height="52" viewBox="0 0 49.83 56.377"><path d="M24.915,0,49.83,14.093V42.285L24.915,56.377,0,42.285V14.093Z" fill="#fff"/><path d="M89.355,98.853,69.713,109.965v-8.653l12.239-6.734ZM90.7,97.636V74.4l-7.185,4.152V93.49L90.7,97.636ZM48.346,98.853l19.642,11.112v-8.653L55.743,94.578ZM47,97.636V74.4l7.185,4.152V93.49ZM47.843,72.9,67.988,61.5v8.363l-12.908,7.1-.1.058Zm42.014,0L69.713,61.5v8.363l12.908,7.095.1.058,7.133-4.12Z" transform="translate(-43.974 -57.541)" fill="#8ed6fb"/><path d="M197.478,242.679,185.4,236.035V222.883l12.078,6.972Zm1.725,0,12.078-6.638V222.883L199.2,229.855ZM198.34,229.353Zm-12.123-7.99L198.34,214.7l12.123,6.663-12.123,7Z" transform="translate(-173.464 -200.878)" fill="#1c78c0"/></svg>