<svg focussable="false" xmlns="http://www.w3.org/2000/svg" width="52" height="52" viewBox="0 0 53.396 52.061"><path d="M43.94,52.061H9.456A9.448,9.448,0,0,1,0,42.606V9.456A9.448,9.448,0,0,1,9.456,0H43.94A9.448,9.448,0,0,1,53.4,9.456v33.15A9.448,9.448,0,0,1,43.94,52.061Z" fill="#ff26be"/><path d="M50.695,57.4H18.041A8.055,8.055,0,0,1,10,49.362V18.041A8.055,8.055,0,0,1,18.041,10H50.673a8.041,8.041,0,0,1,8.041,8.041v31.3A8.026,8.026,0,0,1,50.695,57.4Z" transform="translate(-7.671 -7.671)" fill="#2e001f"/><path d="M56.931,69.152l6.777,12.531c.121.186.048.373-.145.373H59.351a.477.477,0,0,1-.508-.3C57.294,78.678,55.72,75.6,54.1,72.3H54.05c-1.452,3.121-3.05,6.405-4.6,9.48a.467.467,0,0,1-.436.256H45.023c-.242,0-.266-.186-.145-.326l6.632-12.159L45.1,57.249a.188.188,0,0,1,.145-.326H49.4c.242,0,.339.047.436.256,1.525,3.075,3.074,6.242,4.526,9.34h.048c1.4-3.075,2.953-6.266,4.453-9.317.121-.186.194-.3.436-.3h3.9c.194,0,.266.14.145.326Zm7.963,3.8A9.279,9.279,0,0,1,74.6,63.282a11.15,11.15,0,0,1,1.259.047V57.156a.238.238,0,0,1,.242-.233h3.824c.194,0,.242.07.242.186V78.492a15.971,15.971,0,0,0,.121,2.283c0,.14-.048.186-.194.256a14.889,14.889,0,0,1-6.2,1.351C68.645,82.405,64.893,79.284,64.893,72.949Zm10.964-5.963a3.788,3.788,0,0,0-1.4-.233c-3.05,0-5.179,2.259-5.179,6.009,0,4.286,2.178,6.009,4.913,6.009a4.728,4.728,0,0,0,1.67-.256Z" transform="translate(-36.212 -44.762)" fill="#ffd9f2"/></svg>